<?xml version="1.0" standalone="no"?>
<!DOCTYPE svg PUBLIC "-//W3C//DTD SVG 20010904//EN"
 "http://www.w3.org/TR/2001/REC-SVG-20010904/DTD/svg10.dtd">
<svg version="1.0" xmlns="http://www.w3.org/2000/svg"
 width="900.000000pt" height="900.000000pt" viewBox="0 0 900.000000 900.000000"
 preserveAspectRatio="xMidYMid meet">
<metadata>
Created by potrace 1.14, written by Peter Selinger 2001-2017
</metadata>
<g transform="translate(0.000000,900.000000) scale(0.100000,-0.100000)"
fill="#000000" stroke="none">
<path d="M4640 8640 c0 -5 18 -10 40 -10 22 0 40 5 40 10 0 6 -18 10 -40 10
-22 0 -40 -4 -40 -10z"/>
<path d="M1200 8570 c0 -5 18 -10 40 -10 22 0 40 5 40 10 0 6 -18 10 -40 10
-22 0 -40 -4 -40 -10z"/>
<path d="M1440 8570 c0 -5 18 -10 40 -10 22 0 40 5 40 10 0 6 -18 10 -40 10
-22 0 -40 -4 -40 -10z"/>
<path d="M2000 8570 c0 -5 18 -10 40 -10 22 0 40 5 40 10 0 6 -18 10 -40 10
-22 0 -40 -4 -40 -10z"/>
<path d="M2160 8570 c0 -5 18 -10 40 -10 22 0 40 5 40 10 0 6 -18 10 -40 10
-22 0 -40 -4 -40 -10z"/>
<path d="M3120 8570 c0 -5 18 -10 40 -10 22 0 40 5 40 10 0 6 -18 10 -40 10
-22 0 -40 -4 -40 -10z"/>
<path d="M6418 8433 c12 -2 32 -2 45 0 12 2 2 4 -23 4 -25 0 -35 -2 -22 -4z"/>
<path d="M4000 8389 c0 -5 5 -7 10 -4 6 3 10 8 10 11 0 2 -4 4 -10 4 -5 0 -10
-5 -10 -11z"/>
<path d="M4515 8391 c-18 -7 -18 -8 -2 -17 15 -9 12 -13 -23 -33 -48 -27 -51
-35 -10 -26 36 8 80 46 80 69 0 17 -13 19 -45 7z"/>
<path d="M3602 8350 c0 -14 2 -19 5 -12 2 6 2 18 0 25 -3 6 -5 1 -5 -13z"/>
<path d="M6418 8363 c12 -2 32 -2 45 0 12 2 2 4 -23 4 -25 0 -35 -2 -22 -4z"/>
<path d="M3948 8353 c7 -3 16 -2 19 1 4 3 -2 6 -13 5 -11 0 -14 -3 -6 -6z"/>
<path d="M4572 8331 c-17 -17 -32 -35 -32 -42 0 -8 -11 -9 -37 -4 -21 3 -110
8 -198 10 -140 3 -161 6 -173 22 -18 25 -61 25 -54 1 3 -15 -2 -18 -27 -18
-19 0 -30 4 -26 10 3 6 -1 10 -9 10 -21 0 -20 -6 6 -32 22 -22 30 -23 228 -24
186 -2 209 -4 252 -23 26 -12 50 -26 53 -31 3 -6 23 -7 43 -4 33 5 38 2 49
-20 9 -21 8 -28 -4 -35 -10 -5 -13 -14 -9 -22 16 -33 32 -57 49 -73 9 -10 17
-26 17 -36 0 -10 5 -22 10 -25 6 -3 10 -16 10 -29 0 -12 7 -31 15 -42 8 -10
15 -27 15 -37 0 -10 5 -28 11 -39 9 -17 13 -18 20 -7 13 21 11 56 -4 71 -8 7
-20 40 -28 73 -8 33 -19 59 -25 58 -6 -1 -17 10 -25 25 -8 15 -19 30 -26 35
-9 5 -9 15 -2 37 12 32 8 42 -38 94 -38 42 -53 46 -53 11 0 -32 -12 -32 -27 1
-14 30 1 54 34 54 30 0 55 23 47 43 -9 24 -25 21 -62 -12z"/>
<path d="M4667 8329 c-31 -36 -32 -39 -14 -64 19 -25 38 -11 31 24 -3 16 -1
38 5 50 16 29 10 26 -22 -10z"/>
<path d="M3360 8320 c0 -28 2 -30 40 -30 38 0 40 2 40 30 0 28 -2 30 -40 30
-38 0 -40 -2 -40 -30z"/>
<path d="M4250 8330 c0 -5 5 -10 10 -10 6 0 10 5 10 10 0 6 -4 10 -10 10 -5 0
-10 -4 -10 -10z"/>
<path d="M3921 8308 c-1 -25 -5 -28 -39 -28 -26 0 -41 -6 -50 -20 -11 -18 -10
-20 15 -20 38 0 73 -10 73 -21 0 -5 -33 -9 -74 -9 -41 0 -78 -4 -81 -10 -12
-19 -45 -11 -45 10 0 13 -7 20 -20 20 -11 0 -20 -7 -20 -15 0 -8 -9 -15 -19
-15 -11 0 -22 -4 -25 -9 -10 -15 22 -33 45 -26 13 4 24 2 29 -4 5 -9 14 -9 36
-1 16 7 57 12 91 13 44 2 66 7 75 18 13 17 58 43 93 54 15 5 17 8 6 15 -8 4
-20 6 -27 3 -7 -3 -19 -1 -25 3 -9 5 -7 9 7 15 17 6 16 7 -8 14 -15 4 -29 14
-31 23 -3 10 -5 5 -6 -10z m12 -34 c-7 -3 -10 -11 -7 -18 3 -9 -4 -11 -26 -8
-37 5 -39 19 -2 25 39 6 49 6 35 1z"/>
<path d="M3631 8302 c-9 -17 -7 -21 22 -28 48 -11 77 -12 77 -1 0 5 10 6 23 3
42 -13 52 -13 70 -4 9 5 17 15 17 23 0 12 -15 15 -69 15 -38 0 -82 3 -99 6
-24 5 -32 2 -41 -14z"/>
<path d="M4717 8304 c-4 -4 -4 -17 -1 -29 4 -15 0 -24 -10 -28 -20 -8 -21 -37
-1 -37 8 0 15 6 15 13 0 8 11 20 25 27 14 7 25 18 25 23 0 5 12 7 28 3 15 -3
21 -3 15 0 -7 3 -13 12 -13 20 0 10 -12 14 -38 14 -21 0 -42 -3 -45 -6z"/>
<path d="M3480 8272 c0 -10 22 -32 32 -32 4 0 8 9 8 20 0 13 -7 20 -20 20 -11
0 -20 -4 -20 -8z"/>
<path d="M3735 8259 c-9 -14 13 -29 32 -22 8 3 13 6 11 7 -2 1 -10 7 -20 14
-12 10 -18 10 -23 1z"/>
<path d="M3403 8233 c-29 -3 -43 -9 -43 -19 0 -11 14 -14 60 -14 33 0 60 4 60
8 0 10 -22 33 -29 30 -4 -1 -25 -3 -48 -5z"/>
<path d="M4772 8228 c-7 -7 -12 -16 -12 -22 0 -5 7 -1 15 10 15 18 15 18 8 0
-4 -13 -3 -17 5 -12 13 8 16 36 4 36 -4 0 -13 -5 -20 -12z"/>
<path d="M4600 8180 c0 -5 5 -10 10 -10 6 0 10 5 10 10 0 6 -4 10 -10 10 -5 0
-10 -4 -10 -10z"/>
<path d="M4720 8185 c0 -2 7 -8 15 -15 12 -10 15 -10 15 2 0 8 -7 15 -15 15
-8 0 -15 -1 -15 -2z"/>
<path d="M3592 8124 c-8 -9 -23 -11 -42 -7 -18 3 -30 1 -30 -5 0 -6 17 -12 37
-14 54 -4 55 -28 1 -29 -42 -2 -42 -2 12 -9 44 -6 57 -4 65 8 6 9 20 26 33 38
12 11 22 24 22 27 0 12 -86 4 -98 -9z m43 -14 c-3 -5 -10 -10 -16 -10 -5 0 -9
5 -9 10 0 6 7 10 16 10 8 0 12 -4 9 -10z"/>
<path d="M978 8113 c12 -2 32 -2 45 0 12 2 2 4 -23 4 -25 0 -35 -2 -22 -4z"/>
<path d="M3360 8110 c0 -5 7 -7 15 -4 8 4 15 8 15 10 0 2 -7 4 -15 4 -8 0 -15
-4 -15 -10z"/>
<path d="M3479 8100 c25 -22 41 -26 41 -10 0 11 -33 30 -52 30 -7 -1 -3 -9 11
-20z"/>
<path d="M4740 8104 c0 -8 5 -12 10 -9 6 3 10 10 10 16 0 5 -4 9 -10 9 -5 0
-10 -7 -10 -16z"/>
<path d="M3410 8086 c-5 -13 -14 -27 -19 -31 -18 -11 -12 -35 9 -35 13 0 20 7
20 20 0 13 7 20 20 20 23 0 25 8 6 33 -18 23 -25 22 -36 -7z"/>
<path d="M4777 8083 c-10 -10 -8 -123 2 -123 5 0 7 -9 4 -20 -3 -12 0 -20 7
-20 10 0 11 16 6 66 -5 44 -3 64 4 59 6 -4 10 4 10 19 0 24 -18 35 -33 19z"/>
<path d="M3847 8016 c-6 -43 6 -148 22 -196 5 -14 15 -45 22 -70 7 -25 17 -50
21 -57 15 -19 -28 -56 -50 -44 -29 15 -40 0 -43 -59 l-4 -55 65 3 c36 2 85 -1
110 -7 29 -6 60 -7 91 0 39 9 53 19 95 69 27 33 52 60 56 60 4 0 23 14 41 30
19 17 40 30 46 30 6 0 17 13 25 29 19 35 10 41 -59 41 -85 0 -156 89 -171 215
-11 97 -22 29 -16 -107 4 -85 2 -118 -7 -118 -6 0 -11 5 -11 10 0 6 -4 10 -10
10 -5 0 -10 -7 -10 -16 0 -8 -16 -22 -36 -30 -34 -14 -36 -14 -69 13 -20 17
-39 44 -46 68 -18 63 -39 167 -39 197 0 44 -17 32 -23 -16z"/>
<path d="M3475 8039 c4 -5 18 -14 31 -19 15 -6 22 -15 18 -25 -7 -18 -9 -18
41 -1 52 18 61 41 13 32 -23 -4 -45 -1 -64 9 -34 18 -48 19 -39 4z"/>
<path d="M4873 8000 c0 -25 2 -35 4 -22 2 12 2 32 0 45 -2 12 -4 2 -4 -23z"/>
<path d="M3440 7990 c6 -11 13 -20 15 -20 3 0 5 9 5 20 0 11 -7 20 -15 20 -13
0 -14 -4 -5 -20z"/>
<path d="M3472 7961 c-11 -6 -10 -10 1 -19 10 -9 17 -7 30 8 16 19 16 20 -1
20 -9 0 -23 -4 -30 -9z"/>
<path d="M3597 7933 c-10 -16 3 -97 17 -112 9 -10 13 -26 10 -38 -5 -18 -1
-23 20 -29 34 -8 43 1 24 23 -9 10 -19 36 -22 58 -14 78 -35 121 -49 98z"/>
<path d="M3427 7914 c-3 -4 -4 -18 -1 -33 4 -18 0 -32 -10 -40 -8 -7 -12 -19
-9 -27 4 -11 9 -12 19 -3 11 9 14 8 14 -5 0 -9 -7 -16 -16 -16 -17 0 -16 -31
2 -37 6 -2 18 30 27 74 13 61 14 79 4 85 -15 9 -22 10 -30 2z"/>
<path d="M3364 7897 c-3 -9 -4 -25 -2 -36 4 -27 27 -13 30 18 3 27 -19 41 -28
18z"/>
<path d="M4818 7895 c-8 -8 4 -65 13 -65 12 0 12 57 0 64 -4 3 -10 3 -13 1z"/>
<path d="M4785 7810 c-10 -17 6 -111 19 -116 9 -4 12 -50 12 -180 l-1 -175 27
-21 c16 -11 28 -26 28 -32 1 -16 36 -56 49 -56 6 0 11 -9 11 -20 0 -25 30 -27
31 -2 0 10 5 5 12 -13 7 -16 20 -42 30 -57 10 -15 16 -32 12 -37 -3 -7 0 -8 9
-5 18 7 20 27 6 54 -7 13 -7 21 0 25 13 8 13 95 1 95 -14 0 -26 -23 -14 -27 5
-2 8 -15 5 -28 -3 -21 -7 -23 -23 -14 -11 5 -19 16 -19 24 0 8 -7 15 -14 15
-8 0 -27 11 -41 24 -23 21 -25 27 -14 44 11 18 10 23 -12 41 -29 24 -39 26
-39 6 0 -8 -4 -15 -10 -15 -5 0 -10 7 -10 15 0 8 5 15 10 15 6 0 10 7 10 15 0
8 -4 15 -10 15 -5 0 -10 14 -10 30 0 17 4 30 8 30 4 0 6 28 4 63 -2 34 -4 85
-3 114 0 33 -5 55 -14 63 -9 7 -15 29 -15 50 0 59 -17 88 -35 60z"/>
<path d="M3360 7800 c0 -5 5 -10 11 -10 5 0 7 5 4 10 -3 6 -8 10 -11 10 -2 0
-4 -4 -4 -10z"/>
<path d="M4860 7789 c0 -11 5 -17 10 -14 6 3 10 13 10 21 0 8 -4 14 -10 14 -5
0 -10 -9 -10 -21z"/>
<path d="M3360 7745 c0 -10 7 -15 18 -13 21 4 19 22 -2 26 -10 2 -16 -3 -16
-13z"/>
<path d="M6400 7750 c0 -6 33 -10 80 -10 47 0 80 4 80 10 0 6 -33 10 -80 10
-47 0 -80 -4 -80 -10z"/>
<path d="M3433 7726 c4 -11 -4 -20 -29 -32 -41 -20 -52 -34 -26 -34 10 0 29
11 42 25 13 14 30 25 38 25 20 0 9 24 -13 29 -13 2 -16 -1 -12 -13z"/>
<path d="M760 7711 c0 -5 7 -12 16 -15 22 -9 24 -8 24 9 0 8 -9 15 -20 15 -11
0 -20 -4 -20 -9z"/>
<path d="M2858 7713 c-16 -4 -16 -6 2 -26 26 -27 25 -47 -1 -47 -11 0 -17 -4
-14 -10 11 -17 33 -11 40 11 6 17 9 19 16 8 6 -11 14 -8 37 14 18 18 39 27 60
27 22 0 32 5 32 15 0 10 -11 15 -35 15 -19 0 -35 -4 -35 -10 0 -5 -5 -10 -11
-10 -5 0 -7 5 -4 10 6 10 -53 12 -87 3z m77 -42 c-3 -6 -11 -11 -17 -11 -6 0
-6 6 2 15 14 17 26 13 15 -4z"/>
<path d="M4907 7713 c-9 -9 -7 -91 3 -123 5 -16 7 2 6 52 0 43 -1 78 -2 78 0
0 -4 -3 -7 -7z"/>
<path d="M3238 7683 c-47 -7 -31 -23 22 -23 38 0 50 4 50 15 0 15 -15 17 -72
8z"/>
<path d="M3044 7661 c4 -5 2 -12 -3 -15 -17 -11 1 -46 23 -46 12 0 31 -7 42
-15 17 -13 14 -15 -41 -17 -33 -1 -74 -2 -91 -2 -28 1 -30 -1 -26 -28 4 -23 1
-28 -17 -28 -12 0 -21 -6 -21 -15 0 -8 9 -15 19 -15 11 0 23 -4 26 -10 3 -5
-3 -10 -14 -10 -11 0 -23 5 -26 10 -4 6 -12 7 -18 3 -7 -4 -21 -6 -33 -5 -11
2 -28 -6 -39 -18 -10 -11 -23 -20 -30 -20 -16 0 -67 -55 -59 -63 4 -4 -1 -9
-10 -13 -9 -3 -16 -12 -16 -20 0 -8 -6 -14 -13 -14 -7 0 -28 -18 -47 -40 -40
-46 -50 -49 -50 -15 0 14 -4 25 -10 25 -17 0 -11 -42 8 -56 13 -10 14 -15 5
-25 -15 -15 -43 4 -43 30 0 9 -14 25 -30 36 -16 11 -30 25 -30 31 0 17 -28 25
-36 12 -4 -7 -2 -14 5 -16 6 -2 23 -22 37 -43 13 -21 31 -39 39 -39 10 0 15
-11 15 -34 0 -29 -3 -33 -20 -29 -30 8 -39 -27 -12 -45 25 -17 29 -32 7 -32
-8 0 -15 5 -15 10 0 6 -9 10 -21 10 -16 0 -19 -4 -14 -19 4 -13 0 -23 -12 -30
-15 -8 -16 -12 -5 -23 11 -11 16 -10 26 5 7 9 18 17 25 17 16 0 13 -30 -4 -36
-8 -4 -13 -10 -10 -14 2 -4 -4 -15 -15 -25 -19 -17 -20 -17 -29 9 -6 15 -18
26 -28 26 -15 0 -16 -2 -3 -10 12 -8 12 -11 -3 -28 -9 -10 -18 -34 -18 -53 -1
-19 -3 -26 -6 -17 -4 15 -6 15 -24 -3 -10 -10 -19 -26 -19 -35 0 -8 -7 -23
-16 -31 -11 -12 -14 -25 -9 -47 14 -67 17 -126 6 -126 -6 0 -11 -9 -11 -19 0
-25 -20 -38 -31 -20 -5 8 -2 22 6 36 8 12 15 33 15 45 -1 23 -1 23 -25 -4 -19
-22 -23 -37 -22 -76 1 -27 7 -55 13 -63 6 -8 8 -25 3 -39 -7 -26 -8 -26 -14 0
-7 32 -25 70 -42 88 -10 10 -23 27 -29 38 -6 10 -19 20 -28 22 -12 3 -16 -4
-16 -32 0 -20 3 -35 8 -35 23 4 42 -2 37 -12 -4 -5 1 -19 11 -31 10 -11 19
-34 20 -51 1 -17 7 -33 13 -35 17 -6 13 -53 -6 -75 -10 -10 -18 -32 -19 -49
-1 -16 -10 -37 -19 -47 -16 -15 -17 -14 -12 14 7 45 15 74 22 85 4 6 4 24 0
40 -5 23 -12 30 -31 30 -15 0 -24 -6 -24 -15 0 -8 7 -15 16 -15 12 0 15 -6 9
-22 -8 -27 -13 -54 -21 -125 -4 -29 -14 -59 -23 -67 -15 -14 -17 -13 -19 15
-1 17 -7 40 -13 50 -11 22 -34 26 -26 5 4 -11 1 -13 -11 -9 -14 5 -14 3 2 -9
11 -9 20 -32 23 -61 3 -26 10 -47 14 -47 5 0 9 -11 9 -24 0 -18 6 -25 22 -28
14 -2 24 -11 26 -23 2 -16 1 -17 -7 -6 -8 12 -11 9 -17 -15 -5 -16 -7 -35 -5
-43 1 -7 0 -25 -4 -40 l-7 -26 -12 24 -13 24 -31 -30 c-22 -20 -29 -35 -26
-50 7 -24 -21 -83 -39 -83 -6 -1 -2 -6 10 -13 19 -11 20 -14 7 -31 -8 -11 -14
-15 -14 -9 0 5 -10 8 -22 6 -21 -4 -23 -1 -22 31 1 20 4 39 8 43 16 16 4 33
-23 33 l-30 0 6 -57 c5 -41 3 -54 -5 -49 -7 4 -12 21 -12 37 0 18 -5 29 -11
27 -14 -5 -20 -66 -8 -74 5 -3 9 -16 9 -30 0 -14 -4 -22 -10 -19 -6 4 -10 -11
-9 -37 1 -35 2 -39 8 -18 l8 25 5 -25 c5 -24 5 -24 7 -2 0 13 6 20 11 17 6 -3
10 -1 10 4 0 6 -4 11 -10 11 -5 0 -10 12 -9 28 0 26 1 26 9 4 6 -14 21 -25 40
-28 23 -5 30 -12 30 -29 0 -12 3 -37 7 -55 10 -55 -20 -31 -34 26 -11 49 -11
49 -12 12 -1 -27 -6 -38 -16 -38 -17 0 -20 -16 -5 -25 13 -8 13 -25 0 -25 -6
0 -13 13 -16 29 -5 22 -10 27 -25 24 -15 -4 -19 -14 -19 -44 0 -28 -4 -39 -15
-39 -8 0 -15 -7 -15 -15 0 -26 76 -20 104 8 21 21 26 22 42 10 18 -14 18 -15
2 -27 -10 -7 -18 -20 -18 -28 0 -8 -5 -19 -10 -24 -7 -7 -7 -19 -1 -35 5 -13
10 -18 10 -11 1 18 18 15 43 -10 13 -13 30 -21 40 -20 9 2 22 -7 28 -18 15
-28 5 -38 -18 -17 -21 19 -38 11 -20 -10 9 -11 7 -18 -6 -31 -16 -16 -18 -16
-32 2 -11 16 -17 17 -26 8 -10 -10 -5 -19 20 -42 18 -16 32 -38 32 -49 0 -12
7 -22 15 -22 8 -1 21 -2 28 -3 6 -1 15 -5 19 -10 3 -5 14 -2 23 7 15 15 15 17
1 17 -9 0 -16 4 -16 9 0 5 13 4 30 -2 25 -10 32 -9 43 8 14 18 14 18 25 0 8
-16 6 -21 -11 -30 -27 -13 -38 -85 -13 -85 12 0 14 7 10 30 -9 41 17 40 57 -1
23 -24 36 -29 55 -25 14 4 22 10 19 15 -2 5 2 11 10 15 17 6 21 61 5 71 -5 3
-10 38 -10 76 0 116 50 198 151 252 65 35 102 41 141 24 18 -8 51 -20 73 -27
51 -16 95 -47 95 -66 0 -8 13 -23 30 -32 28 -16 34 -27 33 -60 -1 -7 10 -15
23 -18 14 -4 31 -19 39 -35 15 -29 48 -53 58 -43 3 3 3 -3 0 -14 -4 -17 -1
-20 16 -15 12 3 21 11 21 18 0 15 -27 28 -41 19 -5 -3 -9 6 -9 20 0 18 4 24
15 20 8 -4 15 -10 15 -15 0 -5 12 -15 28 -22 15 -6 30 -15 33 -20 8 -12 83
-21 111 -14 40 11 67 79 72 187 2 52 7 109 11 126 11 51 -51 142 -114 165 -19
8 -22 12 -12 19 11 6 9 14 -10 39 -13 16 -32 33 -41 36 -10 4 -18 12 -18 20 0
7 -8 15 -17 17 -16 3 -16 4 -2 18 14 12 14 16 3 25 -9 7 -11 15 -4 25 6 10 10
11 10 3 0 -7 7 -13 15 -13 8 0 15 -4 15 -10 0 -5 7 -10 15 -10 8 0 15 3 15 6
0 3 -7 12 -15 20 -17 17 -20 34 -6 34 5 0 14 -7 21 -15 11 -13 16 -13 41 2 16
10 29 26 29 36 0 15 5 18 25 13 18 -5 25 -2 25 9 0 8 6 15 13 15 7 0 26 13 43
28 17 16 47 36 67 45 37 18 47 33 47 73 0 25 14 32 26 12 5 -8 10 -7 18 3 6 8
28 29 49 46 20 18 37 36 38 40 0 5 8 7 18 5 10 -1 24 4 31 13 10 12 10 18 -1
32 -13 15 -8 16 62 10 49 -3 90 -13 115 -26 21 -12 42 -21 46 -21 16 0 7 30
-18 67 -25 37 -25 38 -5 47 26 11 27 32 4 45 -15 9 -12 10 15 11 22 0 32 -5
32 -15 0 -19 24 -20 39 -1 10 12 64 29 76 23 2 -1 10 7 18 17 13 18 37 15 37
-5 0 -5 11 -27 25 -50 27 -42 45 -44 45 -3 0 33 23 104 34 104 4 0 6 -7 2 -15
-4 -10 1 -15 14 -15 10 0 23 -6 27 -13 4 -8 21 -22 36 -32 16 -10 33 -28 38
-39 5 -12 13 -28 18 -36 5 -8 16 -31 24 -50 51 -119 65 -134 96 -106 10 9 22
16 28 16 5 0 24 7 42 16 20 10 60 16 114 17 69 0 90 -4 132 -25 62 -33 104
-76 146 -153 30 -55 32 -67 32 -145 -1 -73 -5 -93 -30 -140 -41 -81 -145 -167
-245 -205 -69 -26 -186 -17 -252 19 -27 14 -42 26 -32 26 9 0 16 5 16 10 0 6
-6 10 -13 8 -13 -3 -16 -1 -99 75 -45 42 -50 51 -40 67 14 24 -1 35 -18 14 -7
-8 -19 -13 -26 -10 -6 2 -27 -6 -45 -20 -19 -13 -39 -22 -45 -20 -7 3 -15 -2
-18 -10 -3 -8 -12 -14 -21 -14 -8 0 -15 -7 -15 -15 0 -28 -40 -38 -124 -32
-44 4 -84 11 -90 17 -10 10 -9 11 48 14 43 3 59 31 51 96 -8 72 -14 90 -29 90
-8 0 -11 12 -8 35 4 34 -9 47 -24 24 -4 -8 -10 -6 -17 6 -7 12 -5 20 4 26 11
6 11 11 1 21 -9 9 -12 9 -12 -5 0 -21 -23 -22 -40 -2 -27 32 -130 8 -130 -31
0 -8 -7 -14 -15 -14 -8 0 -15 6 -15 14 0 7 7 19 15 26 8 7 15 18 15 24 0 14
52 46 77 47 15 0 14 2 -5 9 -13 6 -32 6 -45 1 -30 -12 -67 -48 -67 -66 0 -8
-4 -15 -10 -15 -17 0 -12 -100 5 -106 8 -4 15 -15 15 -26 0 -11 8 -22 19 -25
12 -3 17 -11 14 -19 -3 -8 9 -33 26 -54 37 -46 38 -53 9 -72 -18 -12 -22 -25
-23 -64 0 -41 -4 -51 -22 -59 -13 -5 -23 -12 -23 -16 0 -10 34 -38 45 -36 6 1
11 -12 13 -30 2 -22 7 -30 17 -27 14 6 39 -29 28 -39 -3 -4 3 -9 13 -13 41
-14 89 -38 96 -48 4 -6 38 -9 86 -7 53 2 87 -2 101 -11 25 -15 27 -28 6 -28
-8 0 -15 -4 -15 -10 0 -5 7 -10 15 -10 10 0 7 -8 -10 -26 -14 -15 -25 -30 -25
-33 0 -3 18 -19 40 -35 22 -17 52 -47 66 -68 35 -50 93 -102 143 -128 31 -15
59 -20 118 -20 69 1 83 4 118 28 48 33 81 81 96 136 52 195 58 209 120 266 37
35 63 70 72 95 17 47 41 53 45 10 5 -38 -19 -130 -73 -280 -23 -66 -50 -145
-60 -175 -38 -122 -70 -182 -131 -247 l-51 -54 -114 2 c-63 2 -119 7 -126 12
-20 15 -58 4 -55 -15 2 -13 -4 -18 -19 -18 -14 0 -19 5 -16 15 4 8 2 17 -3 20
-6 4 -10 -1 -10 -9 0 -13 -25 -15 -191 -11 -178 4 -269 14 -311 36 -10 5 -34
9 -53 9 -24 0 -35 5 -35 14 0 19 -21 25 -93 28 -44 2 -61 7 -68 20 -11 20 -49
25 -49 7 0 -8 -5 -8 -15 1 -8 7 -30 16 -48 19 -25 5 -37 16 -52 47 -36 72 -51
87 -80 80 -26 -7 -29 -10 -40 -60 -5 -22 -9 -26 -18 -17 -19 19 -33 12 -66
-34 -29 -41 -36 -45 -72 -43 -47 2 -61 -9 -35 -28 16 -11 17 -14 4 -14 -9 0
-18 4 -20 10 -4 13 -60 -2 -66 -18 -2 -7 4 -12 13 -12 14 0 16 -10 12 -72 -3
-40 -8 -87 -12 -104 -6 -29 -10 -31 -40 -27 -23 3 -34 0 -38 -11 -8 -20 29
-32 49 -15 12 10 16 9 21 -9 8 -32 31 -28 25 4 l-5 26 29 -18 c39 -25 44 -33
45 -79 1 -29 3 -34 7 -18 l7 22 50 -25 c28 -13 56 -24 64 -24 27 0 5 -9 -33
-13 -26 -3 -39 0 -43 9 -8 22 -32 16 -45 -11 -6 -14 -15 -25 -20 -25 -4 0 -8
-7 -8 -15 0 -8 7 -15 17 -15 9 0 13 -3 10 -6 -4 -4 -19 -1 -35 5 -22 9 -29 19
-29 37 0 37 -21 54 -37 32 -7 -10 -18 -18 -24 -18 -6 0 -12 -23 -14 -52 l-3
-53 -37 3 c-26 3 -38 -1 -39 -10 0 -20 -54 -58 -101 -71 -45 -13 -63 -37 -29
-37 12 0 21 -5 21 -10 0 -15 -31 -25 -39 -13 -3 6 -16 13 -28 17 -19 6 -23 3
-23 -12 0 -11 6 -23 13 -25 6 -3 -5 -3 -25 0 -27 4 -38 2 -38 -7 0 -7 -9 -3
-20 10 -11 13 -20 27 -20 31 0 5 -7 6 -15 3 -22 -9 -18 -34 5 -34 21 0 28 -24
10 -35 -6 -4 -58 -7 -115 -8 -93 -2 -105 -4 -105 -19 0 -10 -7 -18 -15 -18
-15 0 -38 -35 -33 -51 2 -5 15 2 30 16 26 24 108 49 151 46 9 0 33 -2 52 -3
24 -1 37 -8 41 -20 3 -10 16 -21 30 -24 38 -10 86 -36 161 -90 144 -102 259
-249 298 -382 9 -28 20 -54 25 -57 16 -10 12 -45 -5 -45 -8 0 -15 -6 -15 -14
0 -25 12 -46 26 -46 14 0 19 -12 8 -23 -10 -9 -34 4 -34 19 0 22 -31 17 -37
-6 -3 -11 -12 -20 -19 -20 -17 0 -19 -49 -2 -85 18 -39 28 -30 28 26 0 36 4
49 13 46 14 -5 12 -53 -4 -94 -7 -15 -13 -96 -14 -180 -2 -118 -7 -164 -21
-204 l-19 -51 23 -18 c12 -10 22 -25 22 -34 0 -22 17 -20 30 3 14 27 13 44 -4
38 -29 -12 -35 70 -7 100 18 19 27 83 12 83 -10 0 0 235 10 238 16 6 40 75 35
97 -6 24 3 40 23 40 22 0 25 23 4 28 -10 3 -5 5 11 4 39 -3 43 16 6 30 -16 6
-30 19 -30 27 0 21 43 41 67 31 16 -7 15 -9 -9 -18 -16 -6 -28 -14 -28 -17 0
-9 48 -30 68 -30 16 1 16 1 0 11 -22 12 -23 29 -2 29 14 0 14 1 0 16 -26 25
-20 47 9 40 22 -6 25 -3 25 19 0 16 -6 25 -15 25 -8 0 -15 5 -15 10 0 6 7 10
15 10 8 0 15 -4 15 -10 0 -14 37 -13 46 2 4 6 2 14 -4 16 -7 2 -12 8 -12 13 0
14 26 10 40 -6 16 -19 30 -19 30 0 0 8 -7 15 -16 15 -21 0 -12 24 11 28 11 3
15 0 11 -7 -4 -6 1 -14 10 -18 10 -4 19 -2 22 5 2 7 14 12 27 12 13 0 25 5 27
11 2 7 17 12 33 13 21 1 31 7 33 21 9 44 38 57 67 29 11 -11 25 -14 45 -10 25
4 30 2 30 -14 0 -10 -8 -23 -17 -28 -13 -8 -17 -26 -17 -96 -1 -84 0 -86 22
-86 23 0 24 2 20 78 -3 54 0 82 9 90 17 16 43 15 43 -2 0 -7 9 -16 20 -19 11
-3 20 -12 20 -21 0 -9 8 -16 19 -16 13 0 18 -8 19 -27 3 -105 6 -134 9 -110 3
19 10 27 24 27 13 0 19 7 19 21 0 11 4 17 10 14 9 -6 11 -32 11 -135 -1 -108
1 -125 15 -133 16 -9 20 -92 5 -101 -28 -17 3 -126 35 -126 8 0 14 -5 14 -11
0 -7 -12 -10 -29 -7 -37 5 -31 -10 15 -39 27 -18 34 -19 34 -7 0 8 4 13 10 9
5 -3 7 -12 3 -20 -5 -16 13 -45 28 -45 5 0 9 9 9 21 0 15 4 19 16 15 9 -3 18
-6 20 -6 2 0 4 -7 4 -15 0 -8 -7 -15 -15 -15 -24 0 -17 -35 10 -50 31 -16 40
-9 25 20 -16 30 -4 38 21 14 l20 -21 -25 -31 c-17 -19 -22 -32 -14 -34 6 -2 9
-12 5 -21 -4 -10 -12 -14 -22 -11 -10 4 -15 0 -15 -10 0 -9 7 -16 15 -16 18 0
18 -8 0 -40 -11 -19 -14 -21 -15 -7 0 21 -13 22 -29 3 -9 -11 -6 -15 14 -20
26 -7 31 -21 16 -45 -7 -11 -11 -10 -20 5 -9 16 -12 17 -21 4 -7 -11 -5 -18 5
-26 17 -13 20 -44 5 -44 -6 0 -13 7 -16 15 -9 22 -24 18 -24 -5 0 -12 7 -20
17 -20 14 0 15 -2 4 -12 -10 -11 -14 -10 -22 5 -12 21 -32 22 -50 1 -10 -12
-10 -20 -1 -34 12 -20 7 -30 -16 -30 -8 0 -12 6 -8 15 10 27 -23 16 -54 -17
-16 -18 -30 -36 -30 -40 0 -16 30 -7 42 12 7 11 22 20 33 20 18 0 18 -2 -6
-24 -38 -36 -69 -43 -76 -17 -4 17 -9 19 -24 10 -25 -13 -24 -26 1 -34 11 -3
20 -10 20 -14 0 -13 -102 -20 -122 -10 -19 10 -24 -1 -8 -17 6 -6 6 -15 0 -24
-7 -11 -12 -12 -17 -4 -5 7 -19 14 -32 15 -35 5 -36 23 -4 36 l28 11 -26 1
c-33 1 -54 -20 -37 -37 8 -8 7 -13 -5 -18 -27 -10 -20 -24 11 -24 43 0 66 -22
58 -54 -10 -41 -31 -42 -72 -2 -34 33 -36 37 -25 67 14 40 14 39 -3 39 -18 0
-27 25 -15 37 14 14 -10 63 -30 63 -9 0 -22 -9 -29 -20 -7 -11 -23 -20 -37
-20 -32 0 -34 -31 -4 -79 11 -18 19 -34 17 -36 -2 -1 -13 -7 -25 -14 -19 -10
-22 -8 -25 16 -2 21 -10 29 -37 35 -18 5 -36 7 -39 3 -10 -10 16 -28 42 -28
22 1 23 -1 10 -14 -19 -19 -18 -22 8 -32 18 -6 19 -9 5 -14 -9 -3 -23 1 -32
10 -9 9 -26 16 -37 17 -15 1 -29 16 -47 51 l-26 50 -3 -38 c-3 -40 11 -67 34
-67 8 0 14 -4 14 -10 0 -5 11 -10 25 -10 31 0 35 -34 5 -52 -11 -7 -20 -23
-20 -35 0 -16 -6 -23 -19 -23 -34 0 -34 19 -1 50 18 17 36 30 41 30 5 0 9 4 9
10 0 5 -19 1 -42 -10 -26 -11 -45 -15 -49 -9 -3 5 -20 8 -37 7 -28 -2 -34 -7
-42 -38 -14 -51 -13 -65 15 -120 21 -42 23 -50 9 -50 -12 0 -14 -6 -9 -30 5
-24 4 -29 -8 -24 -8 3 -17 -2 -20 -10 -4 -9 -2 -16 3 -16 6 0 10 -7 10 -15 0
-8 8 -15 18 -15 23 0 52 -63 53 -116 1 -34 2 -36 9 -14 5 14 8 18 9 9 1 -9 -5
-32 -13 -50 l-14 -34 -5 40 -4 40 -1 -42 c-1 -24 2 -43 7 -43 5 0 12 -37 17
-82 4 -46 9 -75 12 -65 7 32 19 18 35 -40 16 -57 15 -105 -3 -172 -15 -54 5
-104 27 -69 4 8 10 0 15 -22 9 -42 -1 -118 -13 -99 -4 8 -10 11 -12 9 -7 -8
17 -100 25 -100 5 0 8 -11 8 -25 0 -13 7 -28 16 -33 13 -7 15 -18 10 -48 -3
-21 -9 -59 -12 -84 -4 -25 -11 -51 -16 -57 -6 -7 -8 -19 -5 -28 4 -8 2 -17 -3
-20 -5 -3 -11 5 -13 17 -4 20 -4 19 -6 -4 -1 -19 4 -28 14 -28 9 0 18 -7 21
-15 4 -8 11 -12 18 -8 6 4 5 -1 -2 -10 -8 -9 -10 -22 -6 -29 5 -7 7 -21 5 -32
-1 -10 2 -16 8 -12 6 4 8 -2 6 -14 -5 -28 4 -50 21 -50 9 0 14 -11 14 -30 0
-27 3 -30 30 -30 17 0 30 -4 30 -10 0 -5 7 -10 16 -10 8 0 13 -4 10 -9 -4 -5
4 -7 15 -4 14 4 26 0 34 -11 7 -9 19 -14 28 -10 14 5 14 8 2 20 -7 8 -19 14
-25 14 -13 0 -9 22 6 27 5 2 21 -8 36 -22 15 -14 34 -25 41 -25 8 0 17 -7 21
-15 3 -8 1 -15 -4 -15 -6 0 -10 -7 -10 -15 0 -8 9 -15 20 -15 12 0 17 5 14 14
-7 18 50 29 108 20 l43 -8 -35 -9 -35 -10 44 -10 c38 -7 47 -6 57 8 10 14 18
15 51 6 21 -6 52 -11 68 -11 27 1 28 2 13 14 -24 18 -24 40 0 27 10 -5 24 -6
32 -1 11 7 9 13 -11 29 l-24 21 35 -4 c19 -2 46 -7 60 -10 31 -8 55 7 47 28
-8 21 -36 20 -59 -1 -17 -15 -18 -15 -18 0 0 10 6 17 13 17 8 0 22 9 32 20 23
25 31 25 38 1 3 -12 12 -18 23 -16 11 1 17 9 15 16 -13 48 -12 57 8 64 15 4
21 15 21 36 0 16 4 29 9 29 6 0 18 25 28 56 14 44 19 51 24 36 4 -11 4 -49 -1
-84 -5 -34 -10 -67 -10 -71 0 -5 -8 -6 -18 -3 -15 5 -21 -2 -30 -31 -6 -21 -8
-41 -3 -46 9 -9 51 30 51 48 0 16 39 93 40 78 0 -23 30 -14 31 10 l1 22 6 -22
c5 -17 11 -20 22 -13 8 5 11 10 7 10 -4 0 -2 10 4 22 9 18 8 24 -6 34 -10 7
-14 18 -9 25 4 8 3 10 -5 5 -6 -4 -14 -1 -17 8 -3 8 -12 12 -20 9 -9 -3 -14 2
-14 16 0 12 -6 21 -15 21 -19 0 -19 2 0 46 9 23 11 42 6 57 -9 24 2 57 19 57
5 0 10 -17 12 -37 3 -33 6 -38 28 -38 22 0 25 4 22 34 -2 20 1 37 9 41 7 5
-11 7 -39 6 l-52 -2 2 50 c3 45 7 54 38 78 19 15 41 28 49 28 8 0 30 12 48 26
26 20 33 32 29 47 -3 11 1 35 8 51 8 17 16 39 20 48 7 22 26 24 26 3 0 -10 11
-15 35 -15 19 0 35 -4 35 -10 0 -13 37 -13 42 1 2 6 35 10 81 10 l77 0 0 50
c0 49 -7 58 -27 38 -7 -7 -25 -9 -48 -5 -31 6 -35 9 -24 22 17 21 19 54 2 54
-18 0 -17 26 2 34 19 7 19 23 0 23 -8 0 -12 -4 -10 -8 3 -4 -2 -10 -11 -13
-23 -9 -23 -8 -11 19 7 14 21 25 32 26 11 0 14 3 7 6 -10 4 -10 8 -1 19 16 20
27 17 34 -7 5 -14 14 -19 28 -17 17 2 23 11 25 36 2 18 -2 39 -8 47 -8 9 -8
15 0 20 5 3 10 -1 10 -9 0 -9 5 -16 10 -16 17 0 23 29 10 45 -10 12 -9 15 4
15 9 0 16 -4 16 -10 0 -5 9 -10 20 -10 12 0 20 -7 20 -16 0 -15 2 -15 22 -2
31 21 33 34 6 43 -19 6 -20 8 -5 12 24 6 22 33 -3 33 -24 0 -26 22 -4 40 13
11 16 10 21 -8 3 -13 13 -22 24 -22 24 0 24 16 1 31 -16 10 -17 16 -8 35 6 13
19 27 29 30 9 3 17 10 17 15 0 5 7 9 15 9 20 0 19 -10 -2 -26 -14 -10 -15 -15
-6 -24 14 -15 33 -5 33 17 0 9 6 13 15 9 9 -3 15 0 15 8 0 7 11 19 25 26 25
14 33 34 16 45 -5 3 -17 -2 -26 -11 -18 -18 -20 -18 -29 12 -4 14 0 26 12 37
18 16 20 16 38 -8 20 -26 39 -34 32 -13 -3 7 1 19 8 26 7 7 11 19 8 27 -6 14
24 53 35 47 3 -2 7 2 10 8 2 7 -3 10 -10 8 -21 -8 -49 11 -49 32 0 14 7 20 23
20 20 0 22 4 20 54 -1 39 2 56 12 60 8 3 18 0 21 -6 4 -7 2 -14 -4 -16 -15 -5
-16 -32 -2 -32 13 0 19 15 23 62 2 21 7 41 10 45 4 3 1 16 -7 28 -15 22 -16
48 -3 61 4 4 7 20 7 36 0 15 4 28 8 28 5 0 15 26 22 58 7 31 16 62 20 67 4 6
11 30 15 55 4 25 16 59 26 76 22 36 24 61 7 66 -19 7 78 58 109 58 16 0 33 4
39 9 12 11 83 34 112 36 12 0 22 -5 22 -12 0 -18 27 -16 34 2 3 9 0 15 -9 15
-9 0 -12 6 -9 15 4 8 14 15 24 15 10 0 23 7 30 15 15 18 51 16 58 -2 2 -9 -7
-13 -26 -13 -16 0 -35 -7 -42 -15 -11 -13 -6 -15 34 -15 39 0 46 3 46 19 0 22
50 44 70 31 11 -7 11 -11 1 -24 -9 -11 -10 -16 -2 -16 6 0 11 4 11 8 0 4 16 9
35 10 40 3 47 -13 10 -22 -35 -9 -31 -33 6 -41 19 -4 33 -15 36 -26 7 -26 50
-25 58 1 4 11 15 20 26 20 11 0 18 4 15 8 -3 5 8 6 25 4 31 -5 39 -26 14 -36
-26 -10 -16 -26 27 -46 43 -19 47 -19 116 12 38 17 44 17 58 3 14 -13 13 -15
-8 -15 -23 -1 -58 -21 -58 -34 0 -3 20 -6 45 -6 38 0 45 3 45 20 0 14 7 20 24
20 24 0 51 -22 39 -33 -3 -4 2 -9 11 -13 9 -3 16 -16 16 -28 0 -11 11 -29 25
-39 23 -16 24 -16 38 4 13 17 19 19 36 10 12 -7 21 -19 21 -28 0 -13 3 -14 12
-5 14 14 61 16 86 3 9 -5 26 -12 37 -16 19 -6 19 -7 1 -17 -12 -7 -20 -7 -25
0 -7 11 -24 15 -58 13 -26 -1 -30 -23 -9 -40 11 -9 17 -8 29 4 20 19 27 19 27
0 0 -24 51 -19 57 5 6 24 53 28 53 5 0 -8 -4 -15 -10 -15 -5 0 -10 -7 -10 -15
0 -20 7 -19 37 5 31 24 108 27 132 6 21 -19 39 -21 83 -13 37 8 54 30 43 59
-5 11 1 14 24 10 23 -3 30 0 36 17 7 24 20 27 28 7 3 -8 -3 -22 -13 -31 -11
-10 -17 -22 -14 -26 8 -13 57 -10 77 5 21 16 22 26 1 26 -10 0 -14 7 -12 20 2
12 8 20 13 20 12 -1 24 58 24 128 1 35 5 52 14 52 25 0 46 104 38 188 -2 20
-21 14 -21 -7 0 -11 -5 -23 -10 -26 -6 -3 -10 -22 -10 -41 0 -33 -13 -46 -23
-21 -4 9 -6 9 -6 0 -1 -7 -6 -13 -11 -13 -14 0 -6 190 9 217 6 12 11 32 11 45
0 13 10 29 22 37 l22 14 -22 8 c-19 7 -22 14 -16 31 14 49 47 64 59 28 9 -27
60 -27 75 0 6 11 17 20 24 20 25 0 39 26 26 51 -10 17 -9 20 1 14 9 -6 11 -3
6 8 -5 14 -2 16 18 11 19 -5 25 -2 25 10 0 9 -4 16 -10 16 -5 0 -10 8 -10 18
0 9 -5 24 -10 32 -7 12 -12 8 -23 -18 -15 -36 -27 -32 -27 9 0 18 7 32 20 39
11 6 20 20 20 30 0 13 7 20 20 20 16 0 20 7 20 35 0 26 -3 33 -15 29 -8 -4
-15 -1 -15 5 0 10 14 15 33 12 11 -2 8 74 -3 85 -21 21 1 44 42 44 34 0 39 3
35 18 -19 60 -20 65 -9 58 8 -5 12 1 12 18 0 18 -5 24 -18 21 -15 -2 -17 3
-14 37 3 25 8 38 16 35 9 -4 12 13 11 62 -1 78 -5 94 -25 103 -11 6 -10 7 5 5
13 -1 21 -11 23 -27 7 -48 36 -65 48 -28 6 19 7 20 16 4 8 -15 13 -13 44 18
26 26 34 42 34 70 0 29 -4 36 -20 36 -17 0 -20 -7 -20 -39 0 -37 -9 -46 -49
-51 -3 0 -7 12 -9 26 -2 15 -8 37 -15 48 -6 12 -10 42 -8 67 2 32 -2 49 -13
58 -9 8 -16 22 -16 32 0 20 -15 25 -25 9 -11 -18 -35 -11 -44 14 -5 13 -17 26
-25 29 -9 4 -16 12 -16 19 0 15 -27 41 -53 51 -9 3 -17 11 -17 16 0 5 -9 13
-20 16 -25 8 -26 25 -2 25 11 0 40 -20 66 -45 47 -44 66 -54 66 -36 0 4 -18
20 -40 35 -22 14 -40 31 -40 36 0 6 -7 10 -15 10 -13 0 -15 9 -11 42 5 47 -6
68 -38 68 -18 -1 -17 -3 9 -17 l29 -16 -22 -15 c-20 -13 -21 -16 -6 -27 15
-10 13 -13 -17 -19 -26 -5 -37 -2 -46 11 -11 13 -10 20 4 35 15 17 14 18 -20
18 -25 0 -37 -5 -37 -14 0 -8 -7 -22 -16 -30 -14 -15 -13 -17 11 -26 14 -5 31
-10 37 -10 5 0 30 -13 55 -30 24 -16 48 -30 54 -30 5 0 9 -3 9 -7 0 -5 13 -22
29 -39 16 -17 31 -39 32 -50 3 -13 21 -25 54 -36 l50 -17 -2 -53 c0 -29 3 -56
9 -59 6 -4 -8 -25 -33 -50 -23 -23 -35 -40 -26 -36 12 4 17 1 19 -11 6 -72 5
-102 -3 -107 -5 -4 -9 -17 -9 -30 0 -13 -5 -25 -11 -27 -5 -2 -14 -28 -19 -58
-5 -30 -14 -84 -20 -120 -6 -36 -15 -73 -20 -82 -6 -10 -10 -29 -10 -44 0 -14
-9 -37 -20 -51 -11 -14 -20 -36 -20 -48 0 -12 -6 -28 -14 -34 -8 -7 -12 -20
-9 -29 2 -10 -5 -26 -16 -36 -12 -11 -21 -25 -21 -33 0 -16 -16 -17 -26 -1 -4
6 0 16 8 22 10 8 14 22 10 44 -2 17 3 50 12 72 9 22 16 57 16 78 0 21 5 43 10
48 6 6 15 39 20 75 15 105 30 183 39 199 13 24 24 82 22 113 -1 29 7 34 28 14
11 -10 13 -9 7 1 -11 18 3 72 19 72 7 0 12 8 10 18 -13 61 -17 72 -29 72 -7 0
-18 -12 -25 -26 -7 -15 -18 -24 -28 -22 -16 3 -55 60 -74 111 -6 15 -14 27
-18 27 -4 0 -24 16 -45 35 -75 68 -223 129 -303 124 -76 -5 -100 0 -106 22 -5
17 -1 20 21 18 53 -4 62 0 62 27 0 22 2 24 14 14 15 -11 208 -16 226 -5 13 8
8 45 -6 45 -7 0 -14 -5 -16 -12 -4 -10 -13 -10 -40 -1 -26 8 -39 8 -47 0 -8
-8 -28 -7 -72 2 -44 9 -65 9 -72 2 -6 -6 -26 -11 -44 -11 -26 0 -33 -4 -33
-20 0 -11 -4 -20 -10 -20 -5 0 -10 5 -10 12 0 6 -6 3 -14 -7 -8 -11 -12 -25
-9 -31 7 -19 -19 -29 -29 -10 -14 24 -42 19 -77 -13 -22 -20 -30 -36 -28 -53
2 -12 1 -35 -4 -50 -5 -17 -4 -28 2 -28 6 0 7 -5 3 -11 -4 -8 -9 -8 -17 0 -35
35 -67 -36 -60 -128 4 -44 2 -61 -7 -61 -8 0 -10 10 -6 34 5 25 3 35 -9 40 -8
3 -15 15 -15 26 0 11 -4 20 -9 20 -5 0 -15 15 -21 33 -10 24 -14 27 -17 15 -3
-10 -9 -18 -14 -18 -5 0 -9 -7 -9 -16 0 -22 -27 -48 -33 -31 -2 7 -8 8 -13 3
-5 -5 -4 -11 4 -13 6 -3 9 -10 5 -16 -3 -7 3 -4 14 5 35 31 64 20 76 -30 5
-21 3 -23 -18 -18 -19 5 -25 1 -34 -24 -12 -37 -37 -39 -45 -4 -8 30 -11 29
-20 -8 -5 -22 -3 -26 9 -22 18 7 20 -7 3 -28 -21 -25 -45 -28 -64 -7 -20 22
-44 25 -62 7 -21 -21 -13 -28 31 -28 53 0 62 -8 40 -32 -26 -29 -117 -20 -218
22 -11 5 -73 25 -137 45 -110 35 -122 37 -215 32 -54 -3 -110 -8 -125 -12 -22
-6 -28 -4 -28 8 0 9 8 17 17 19 13 2 3 12 -31 32 -26 15 -57 37 -67 47 -10 10
-26 19 -35 19 -9 0 -29 10 -44 23 -16 12 -66 47 -110 77 -45 30 -106 74 -135
98 -30 23 -58 42 -63 42 -6 0 -15 14 -21 30 -5 17 -15 30 -20 30 -6 0 -11 9
-11 20 0 15 -7 20 -25 20 -30 0 -31 7 -6 38 22 25 66 30 75 7 3 -8 13 -15 21
-15 20 0 63 -32 170 -124 108 -93 153 -120 170 -106 16 14 55 -3 55 -24 0 -7
11 -22 25 -34 14 -12 25 -26 25 -32 0 -5 5 -10 10 -10 14 0 13 37 -1 46 -8 4
-7 9 2 15 11 7 9 10 -8 15 -13 4 -23 10 -23 15 0 12 -43 39 -70 44 -28 5 -70
32 -70 45 0 6 12 10 28 11 l27 1 -29 8 c-16 5 -33 7 -37 5 -3 -3 -9 4 -12 15
-3 11 -12 20 -21 20 -9 0 -16 4 -16 9 0 5 -16 19 -36 31 -19 12 -58 42 -87 67
-28 24 -62 46 -74 49 -23 6 -32 24 -13 24 6 0 10 9 10 20 0 11 -7 20 -15 20
-8 0 -15 -7 -15 -15 0 -8 -9 -15 -20 -15 -11 0 -20 5 -20 11 0 6 9 13 20 16
11 3 20 10 20 15 0 7 16 8 41 4 24 -4 46 -2 54 4 9 8 14 6 19 -5 3 -8 12 -15
21 -15 8 0 33 -11 54 -25 55 -34 87 -41 95 -20 8 22 -1 36 -19 29 -8 -4 -12
-10 -9 -15 3 -5 0 -9 -5 -9 -6 0 -11 4 -11 9 0 10 -36 26 -70 30 -16 2 -12 41
4 41 8 0 16 -5 18 -12 3 -8 16 -5 40 10 27 17 37 19 41 10 3 -7 6 -3 6 9 1 12
-4 25 -9 28 -6 4 -8 10 -5 15 10 16 -13 20 -29 5 -8 -9 -19 -17 -23 -18 -4 -1
-7 -6 -5 -10 1 -5 -3 -7 -10 -5 -7 3 -18 -2 -24 -10 -12 -17 -81 -26 -89 -12
-4 6 -17 3 -31 -7 -38 -25 -48 -7 -34 62 9 42 16 55 27 53 9 -2 18 -14 20 -27
2 -13 8 -31 13 -40 8 -14 10 -14 10 4 l1 20 9 -20 c8 -18 9 -17 9 7 1 15 5 29
11 33 15 9 -9 51 -36 64 -27 12 -33 56 -12 94 14 27 14 276 0 303 -13 25 -15
244 -2 244 6 0 10 -6 10 -12 1 -22 29 36 30 59 0 12 5 25 10 28 14 9 13 58 -2
73 -7 7 -21 12 -31 12 -16 0 -18 5 -13 28 11 42 15 63 23 117 l7 50 7 -40 c6
-38 6 -38 8 -7 1 21 6 32 16 32 8 0 15 9 15 20 0 11 -4 20 -10 20 -5 0 -10 -4
-10 -10 0 -5 -11 -10 -24 -10 -24 0 -25 2 -25 73 0 40 -6 86 -13 102 -12 27
-14 12 -18 -135 -5 -168 -12 -192 -24 -85 -4 33 -11 76 -16 95 -22 87 -100
545 -130 760 l-20 145 23 20 c33 29 59 74 53 91 -5 13 -19 14 -78 8 -40 -3
-91 -12 -113 -19 -22 -7 -61 -16 -86 -19 -36 -5 -48 -12 -52 -28 -4 -15 -10
-19 -24 -13 -70 29 -162 43 -256 41 -140 -4 -168 13 -107 67 31 28 37 42 20
52 -5 3 -10 1 -10 -6 0 -8 -4 -8 -12 -2 -7 6 -31 16 -53 23 -22 7 -44 16 -50
21 -5 5 -13 9 -17 9 -12 0 -10 -48 2 -55 6 -3 10 -13 10 -22 0 -8 14 -32 30
-53 31 -40 36 -55 21 -65 -6 -3 -22 16 -38 42 -57 99 -149 220 -160 210 -3 -4
18 -53 48 -109 5 -10 9 -53 9 -96 0 -98 -7 -105 -126 -139 -48 -13 -116 -37
-151 -53 l-65 -30 -37 20 c-50 25 -119 102 -161 181 -32 60 -35 70 -33 151 1
83 3 90 33 129 18 22 51 52 74 66 35 22 51 26 116 25 47 -1 87 -7 105 -16 17
-9 34 -16 39 -16 4 0 31 -17 60 -37 51 -38 49 -27 -8 35 -30 32 -30 33 -9 38
13 4 20 11 16 20 -7 19 -33 18 -49 -3 -7 -10 -16 -14 -21 -9 -4 5 -2 11 5 13
6 3 12 13 12 24 0 22 -102 74 -127 65 -14 -6 -14 -8 3 -21 17 -13 17 -14 2
-15 -9 0 -21 6 -25 13 -4 8 -30 17 -58 21 -64 8 -75 19 -47 49 12 13 19 27 15
30 -3 4 3 7 14 7 12 0 23 7 27 15 7 19 -18 20 -34 0 -7 -8 -27 -17 -46 -21
-19 -3 -31 -10 -28 -15 11 -18 -7 -29 -22 -14 -9 8 -24 15 -35 15 -12 0 -17 4
-14 11 5 7 -4 9 -26 7 -41 -4 -50 -25 -12 -30 15 -2 27 -7 26 -13 -4 -17 -41
-17 -78 0 -20 10 -45 15 -59 11 -32 -8 -86 11 -66 24 8 5 18 6 22 4 4 -3 8 -1
8 5 0 12 -7 16 -43 25 -18 4 -26 3 -23 -3z m16 -129 c0 -14 -11 -21 -26 -15
-21 8 -17 23 6 23 11 0 20 -4 20 -8z m555 -50 c-3 -3 -11 0 -18 7 -9 10 -8 11
6 5 10 -3 15 -9 12 -12z m-705 -46 c0 -9 -30 -14 -35 -6 -4 6 3 10 14 10 12 0
21 -2 21 -4z m-70 -35 c0 -17 -30 -40 -45 -34 -13 4 -11 9 6 24 24 21 39 24
39 10z m-96 -100 c-22 -21 -27 -21 -18 3 3 9 13 16 22 16 13 0 12 -3 -4 -19z
m-44 -46 c0 -8 -6 -15 -14 -15 -8 0 -16 -6 -19 -12 -2 -7 -8 -10 -11 -6 -8 6
23 46 37 47 4 1 7 -6 7 -14z m-60 -64 c0 -12 -20 -25 -27 -18 -7 7 6 27 18 27
5 0 9 -4 9 -9z m-30 -35 c0 -16 -14 -36 -26 -36 -14 0 -19 22 -7 33 7 8 33 10
33 3z m-160 -265 c0 -11 -4 -23 -10 -26 -6 -4 -10 5 -10 19 0 14 5 26 10 26 6
0 10 -9 10 -19z m-36 -46 c3 -8 1 -15 -4 -15 -6 0 -10 7 -10 15 0 8 2 15 4 15
2 0 6 -7 10 -15z m-31 -65 c-3 -11 -9 -20 -14 -20 -5 0 -9 9 -9 20 0 11 6 20
14 20 9 0 12 -7 9 -20z m1097 -444 c0 -11 -19 -15 -25 -6 -3 5 1 10 9 10 9 0
16 -2 16 -4z m-56 -67 c-3 -5 -10 -7 -15 -3 -5 3 -7 10 -3 15 3 5 10 7 15 3 5
-3 7 -10 3 -15z m-1229 -21 c6 -27 3 -47 -9 -67 -14 -22 -26 10 -19 52 6 42
20 48 28 15z m1485 -233 c15 -18 5 -35 -20 -35 -22 0 -34 15 -26 35 7 19 30
19 46 0z m-1570 -64 c0 -5 -8 -17 -17 -27 -17 -17 -18 -17 -21 1 -2 9 2 21 10
26 17 11 28 11 28 0z m970 -151 c0 -5 -2 -10 -4 -10 -3 0 -8 5 -11 10 -3 6 -1
10 4 10 6 0 11 -4 11 -10z m1880 -43 c0 -5 -9 -7 -20 -4 -15 4 -20 0 -20 -14
0 -10 -4 -19 -10 -19 -15 0 -12 33 7 59 15 23 17 23 30 6 7 -11 13 -23 13 -28z
m-2955 12 c8 -23 -7 -39 -36 -39 -22 0 -33 29 -18 46 17 21 47 17 54 -7z m15
-274 c0 -8 -4 -15 -10 -15 -5 0 -10 7 -10 15 0 8 5 15 10 15 6 0 10 -7 10 -15z
m2470 -97 c0 -32 -9 -42 -60 -65 -131 -60 -345 -93 -345 -53 0 15 105 48 156
49 15 1 42 7 60 15 l34 14 -29 12 c-16 6 -32 7 -35 3 -3 -4 -15 -9 -26 -10
-11 -1 -41 -7 -67 -13 -33 -8 -53 -8 -65 -1 -16 9 -15 10 6 11 33 0 134 32
143 45 5 6 24 4 56 -8 66 -23 114 -22 137 3 24 26 35 25 35 -2z m411 -11 c-1
-4 -1 -28 -1 -54 0 -35 -3 -44 -10 -33 -13 21 -13 103 1 98 6 -2 10 -7 10 -11z
m-2781 -50 c0 -7 -9 -18 -20 -25 -23 -14 -25 -10 -8 18 14 23 28 26 28 7z m15
-37 c3 -5 1 -10 -4 -10 -6 0 -11 5 -11 10 0 6 2 10 4 10 3 0 8 -4 11 -10z
m2764 -57 c0 -21 -4 -47 -9 -58 -6 -14 -8 -3 -7 38 1 31 5 57 9 57 4 0 8 -17
7 -37z m-2639 -33 c0 -5 7 -10 15 -10 19 0 19 -14 2 -29 -16 -12 -28 -5 -21
13 3 7 -5 18 -18 24 l-23 11 23 0 c12 1 22 -3 22 -9z m2597 -197 c-3 -10 -5
-4 -5 12 0 17 2 24 5 18 2 -7 2 -21 0 -30z m-1852 -63 c-3 -5 -13 -10 -21 -10
-8 0 -12 5 -9 10 3 6 13 10 21 10 8 0 12 -4 9 -10z m1615 -180 c0 -5 -5 -10
-11 -10 -5 0 -7 5 -4 10 3 6 8 10 11 10 2 0 4 -4 4 -10z m74 -25 c23 -17 15
-45 -13 -45 -19 0 -41 26 -41 49 0 15 32 13 54 -4z m-1769 -142 c22 -21 40
-28 75 -29 76 -3 72 -2 59 -26 -8 -14 -14 -18 -17 -10 -2 6 -17 12 -34 12 -58
0 -104 20 -115 51 -14 36 -6 37 32 2z m1700 7 c3 -5 14 -10 23 -10 19 -1 79
-53 105 -93 25 -39 23 -124 -6 -159 -27 -33 -107 -54 -146 -39 -14 5 -37 12
-51 15 -62 13 -128 125 -114 193 6 32 35 66 76 88 28 16 104 19 113 5z m-1435
-20 c0 -5 -7 -10 -15 -10 -8 0 -15 5 -15 10 0 6 7 10 15 10 8 0 15 -4 15 -10z
m-56 -22 c-7 -11 -34 -10 -34 1 0 6 9 9 19 8 11 0 17 -5 15 -9z m3260 -26 c2
-4 -7 -8 -22 -9 -24 -2 -24 -1 -7 7 11 5 21 9 22 9 1 1 4 -3 7 -7z m-3459 -61
c3 -5 1 -12 -5 -16 -13 -8 -50 3 -50 16 0 12 47 12 55 0z m3757 -33 c2 -13 10
-24 18 -24 8 -1 21 -2 28 -3 7 0 19 -16 27 -33 7 -18 23 -40 34 -48 25 -17 26
-26 6 -46 -13 -14 -19 -41 -18 -81 1 -7 -3 -13 -8 -13 -5 0 -19 6 -30 13 -17
10 -23 10 -26 0 -7 -19 -46 -16 -69 5 -35 31 -83 62 -95 62 -7 0 -9 3 -6 7 4
3 -1 16 -12 27 -23 27 -43 122 -27 135 15 12 50 18 118 20 52 1 57 -1 60 -21z
m-3902 -12 c0 -9 -30 -14 -35 -6 -4 6 3 10 14 10 12 0 21 -2 21 -4z m3496 -57
c7 -11 -12 -29 -31 -29 -5 0 -4 4 4 9 7 5 10 14 7 20 -4 6 -3 11 3 11 5 0 13
-5 17 -11z m-3596 -39 c0 -13 -20 -13 -40 0 -12 8 -9 10 13 10 15 0 27 -4 27
-10z m-82 -52 c-7 -20 -48 -23 -48 -4 0 11 9 16 26 16 16 0 24 -5 22 -12z
m3576 -100 c-3 -4 -14 -8 -24 -8 -12 0 -17 -5 -14 -14 5 -14 -22 -30 -30 -17
-3 4 4 22 14 39 17 28 22 31 39 20 11 -7 17 -16 15 -20z m-84 -58 c0 -5 -7
-10 -15 -10 -8 0 -15 5 -15 10 0 6 7 10 15 10 8 0 15 -4 15 -10z m1040 -241
c0 -5 -4 -9 -10 -9 -5 0 -10 7 -10 16 0 8 5 12 10 9 6 -3 10 -10 10 -16z
m-3737 -35 c3 -3 3 -12 0 -20 -4 -10 -10 -11 -25 -3 -17 9 -18 13 -7 20 17 10
24 11 32 3z m40 -52 c-18 -5 -27 3 -18 17 4 7 10 7 20 -2 11 -10 11 -13 -2
-15z m-143 -11 c0 -5 -7 -11 -15 -15 -15 -5 -20 5 -8 17 9 10 23 9 23 -2z
m200 -1 c0 -5 -7 -10 -15 -10 -8 0 -15 5 -15 10 0 6 7 10 15 10 8 0 15 -4 15
-10z m-285 -40 c-3 -5 -11 -10 -16 -10 -6 0 -7 5 -4 10 3 6 11 10 16 10 6 0 7
-4 4 -10z m361 -15 c15 -17 18 -25 9 -25 -15 0 -45 27 -45 41 0 15 12 10 36
-16z m62 -102 c2 -11 -4 -23 -12 -26 -12 -5 -16 1 -16 24 0 35 23 36 28 2z
m-629 -4 c-7 -14 -14 -18 -21 -11 -13 13 -2 32 18 32 12 0 13 -4 3 -21z m-57
-41 c-6 -6 -16 -7 -23 -3 -9 6 -7 12 7 22 21 15 34 -1 16 -19z m-36 -95 c-11
-11 -19 6 -11 24 8 17 8 17 12 0 3 -10 2 -21 -1 -24z m4127 -25 c7 -26 -12
-58 -31 -50 -10 3 -13 1 -8 -6 4 -7 5 -16 2 -21 -9 -13 -56 11 -56 29 0 13 1
13 10 0 8 -12 10 -12 16 3 3 9 12 17 20 17 8 0 14 7 14 15 0 8 6 15 13 16 10
0 10 2 0 6 -7 2 -13 9 -13 14 0 16 28 -2 33 -23z m-103 -7 c0 -6 -4 -13 -10
-16 -5 -3 -10 1 -10 9 0 9 5 16 10 16 6 0 10 -4 10 -9z m-3211 -283 c-11 -20
-29 -24 -29 -7 0 6 5 20 11 31 9 16 13 18 19 7 5 -7 4 -21 -1 -31z m28 -70
c-3 -8 -6 -5 -6 6 -1 11 2 17 5 13 3 -3 4 -12 1 -19z m1981 -175 c2 -8 -6 -13
-23 -13 -15 0 -24 -4 -20 -10 3 -5 2 -10 -4 -10 -11 0 -20 21 -14 36 5 15 55
12 61 -3z m160 -43 c34 0 18 -15 -31 -28 -32 -9 -39 -8 -44 5 -7 17 16 35 35
28 8 -3 25 -5 40 -5z m279 -94 c28 -24 28 -25 8 -40 -19 -14 -21 -13 -34 15
-8 16 -19 29 -23 29 -5 0 -6 5 -3 10 10 15 21 12 52 -14z m541 -132 c-3 -2
-23 -6 -46 -8 -31 -3 -42 0 -42 10 0 8 6 14 13 15 23 1 49 8 55 14 3 3 10 -2
15 -10 5 -9 7 -18 5 -21z m-2948 -55 c0 -5 -7 -9 -15 -9 -15 0 -20 12 -9 23 8
8 24 -1 24 -14z m-479 -132 c-17 -17 -13 -45 5 -43 9 0 19 -5 21 -11 8 -21
-24 -15 -51 11 -25 23 -25 23 -7 40 12 11 17 24 13 34 -5 15 -3 14 12 -1 14
-14 16 -21 7 -30z m-273 -247 c-3 -56 -9 -62 -26 -24 -14 30 -6 74 14 74 10 0
13 -13 12 -50z m1859 -157 c-3 -10 -5 -2 -5 17 0 19 2 27 5 18 2 -10 2 -26 0
-35z m-1839 -26 c2 -10 -1 -17 -6 -17 -22 0 -42 13 -42 26 0 20 44 11 48 -9z
m1598 -238 c3 -6 2 -15 -2 -19 -12 -12 -38 5 -30 19 9 14 23 14 32 0z m-1499
-71 c-3 -8 -6 -5 -6 6 -1 11 2 17 5 13 3 -3 4 -12 1 -19z m-67 -3 c0 -8 -4
-15 -10 -15 -5 0 -7 7 -4 15 4 8 8 15 10 15 2 0 4 -7 4 -15z m69 -57 c-1 -41
-1 -42 -11 -15 -5 15 -7 34 -4 42 10 27 16 16 15 -27z m1249 -119 c-10 -5 -15
-16 -12 -24 4 -8 2 -15 -4 -15 -5 0 -8 10 -7 23 3 28 2 27 23 27 16 -1 16 -1
0 -11z m-1238 -20 c0 -11 -4 -17 -10 -14 -5 3 -10 13 -10 21 0 8 5 14 10 14 6
0 10 -9 10 -21z m1250 -79 c0 -42 -4 -60 -13 -60 -8 0 -11 14 -9 48 6 91 22
100 22 12z m-1181 -82 c7 -51 19 -131 26 -178 19 -118 30 -346 17 -354 -5 -3
-13 9 -16 28 -4 19 -13 39 -20 45 -8 7 -16 45 -21 96 -4 47 -10 85 -15 85 -16
0 -36 329 -24 385 l6 29 18 -21 c10 -13 22 -57 29 -115z m1126 102 c10 -16 -5
-50 -21 -50 -17 0 -28 24 -20 45 6 17 32 20 41 5z m-692 -52 c7 -25 1 -38 -16
-38 -8 0 -8 3 2 9 10 7 11 13 2 30 -7 11 -8 21 -3 21 6 0 12 -10 15 -22z
m-531 -30 c-8 -8 -9 -4 -5 13 4 13 8 18 11 10 2 -7 -1 -18 -6 -23z m603 -28
c3 -5 -3 -10 -14 -10 -12 0 -21 5 -21 10 0 6 6 10 14 10 8 0 18 -4 21 -10z
m475 -49 c0 -21 -13 -41 -26 -41 -17 0 -18 22 -2 38 14 14 28 16 28 3z m-500
-5 c0 -3 -4 -8 -10 -11 -5 -3 -10 -1 -10 4 0 6 5 11 10 11 6 0 10 -2 10 -4z
m0 -91 c0 -8 -4 -15 -10 -15 -5 0 -10 7 -10 15 0 8 5 15 10 15 6 0 10 -7 10
-15z m356 -48 c11 -10 -7 -29 -23 -23 -11 4 -13 1 -8 -14 4 -12 7 -69 7 -128
1 -100 -1 -111 -30 -173 -35 -73 -54 -94 -77 -85 -20 7 -32 39 -17 44 13 4 17
32 4 32 -4 0 -18 27 -30 60 -13 33 -28 60 -33 60 -5 0 -9 11 -9 25 0 14 -4 25
-10 25 -6 0 -8 29 -4 78 8 105 17 112 134 108 50 -1 93 -5 96 -9z m-849 -469
c-3 -7 -5 -2 -5 12 0 14 2 19 5 13 2 -7 2 -19 0 -25z m119 -50 c3 -5 4 -12 1
-14 -6 -6 -47 18 -47 27 0 10 39 -1 46 -13z"/>
<path d="M2880 7600 c0 -5 5 -10 10 -10 6 0 10 5 10 10 0 6 -4 10 -10 10 -5 0
-10 -4 -10 -10z"/>
<path d="M2722 7578 c3 -7 16 -20 30 -27 21 -12 30 -13 49 -3 13 7 17 11 8 8
-12 -3 -15 1 -12 15 5 16 0 19 -37 19 -29 0 -40 -4 -38 -12z"/>
<path d="M2880 7519 c0 -24 23 -21 28 4 2 10 -3 17 -12 17 -10 0 -16 -9 -16
-21z"/>
<path d="M2720 7483 c0 -24 24 -32 36 -12 3 6 19 9 35 7 16 -3 29 -3 29 -1 0
15 -31 28 -63 28 -32 0 -37 -3 -37 -22z"/>
<path d="M2578 7433 c-3 -27 -3 -54 0 -60 6 -18 27 -16 43 3 11 14 11 18 -4
29 -10 7 -17 26 -17 44 0 49 -18 36 -22 -16z"/>
<path d="M4906 7453 c11 -46 18 -46 29 0 6 23 4 27 -14 27 -18 0 -20 -4 -15
-27z"/>
<path d="M2680 7400 c0 -28 13 -40 24 -22 7 12 -5 52 -15 52 -5 0 -9 -13 -9
-30z"/>
<path d="M4990 7410 c0 -5 7 -10 16 -10 8 0 12 5 9 10 -3 6 -10 10 -16 10 -5
0 -9 -4 -9 -10z"/>
<path d="M2640 7375 c0 -8 4 -15 10 -15 5 0 7 7 4 15 -4 8 -8 15 -10 15 -2 0
-4 -7 -4 -15z"/>
<path d="M3597 7373 c-4 -4 -5 -21 -1 -38 4 -21 1 -35 -9 -44 -17 -14 -61 -6
-78 15 -6 8 -20 14 -30 14 -11 0 -19 5 -19 10 0 6 -10 10 -21 10 -18 0 -20 -4
-14 -27 3 -16 9 -91 12 -168 5 -131 13 -172 34 -159 5 2 19 -2 32 -11 13 -8
27 -12 30 -8 12 11 7 105 -8 168 -8 33 -14 66 -15 73 0 22 31 13 80 -23 26
-19 50 -35 53 -35 2 0 8 25 12 55 4 38 11 55 21 55 8 0 14 -4 14 -9 0 -5 6
-16 13 -23 22 -24 87 -124 87 -135 0 -17 30 -37 39 -27 5 5 11 23 14 41 6 28
0 40 -51 99 -69 83 -163 174 -178 174 -6 0 -14 -3 -17 -7z"/>
<path d="M3780 7325 c0 -8 4 -15 10 -15 5 0 7 7 4 15 -4 8 -8 15 -10 15 -2 0
-4 -7 -4 -15z"/>
<path d="M2405 7310 c2 -14 5 -31 5 -37 0 -7 9 -13 20 -13 11 0 20 7 20 15 0
8 -7 15 -15 15 -9 0 -20 10 -26 23 -9 21 -9 21 -4 -3z"/>
<path d="M2620 7310 c0 -5 5 -10 10 -10 6 0 10 5 10 10 0 6 -4 10 -10 10 -5 0
-10 -4 -10 -10z"/>
<path d="M5060 7285 c0 -31 3 -35 25 -35 22 0 25 4 25 35 0 31 -3 35 -25 35
-22 0 -25 -4 -25 -35z"/>
<path d="M2460 7226 c0 -8 5 -18 10 -21 6 -3 10 3 10 14 0 12 -4 21 -10 21 -5
0 -10 -6 -10 -14z"/>
<path d="M2401 7174 c0 -11 3 -14 6 -6 3 7 2 16 -1 19 -3 4 -6 -2 -5 -13z"/>
<path d="M4889 7158 c-7 -18 -12 -41 -11 -50 1 -12 -3 -15 -13 -11 -14 5 -55
-30 -55 -47 0 -4 -9 -10 -21 -13 -16 -4 -19 -11 -14 -26 3 -12 8 -40 9 -64 2
-23 10 -58 18 -78 10 -23 14 -53 10 -87 -3 -33 1 -69 12 -101 9 -27 16 -65 16
-83 0 -61 12 -109 25 -104 8 3 16 -6 19 -20 4 -15 14 -24 27 -24 29 0 34 25
11 62 -11 18 -22 46 -26 61 -4 16 -11 25 -17 21 -7 -4 -6 2 1 16 8 15 8 20 1
16 -6 -4 -11 -2 -11 3 0 6 6 11 14 11 8 0 18 10 21 23 4 12 9 30 11 40 3 9 1
17 -5 17 -6 0 -11 -7 -11 -16 0 -8 -6 -22 -14 -29 -18 -18 -25 -3 -36 80 -4
33 -9 65 -10 70 -1 6 -2 24 -1 42 1 25 4 30 20 26 14 -4 19 2 23 24 3 23 0 28
-19 29 -13 1 -23 -3 -24 -10 -1 -23 -18 30 -18 59 0 32 19 65 38 65 6 0 11 -7
11 -15 0 -8 -4 -15 -10 -15 -5 0 -10 -8 -10 -17 1 -17 2 -16 15 1 8 10 16 24
19 30 3 7 9 4 16 -6 13 -21 40 -24 40 -5 0 6 -11 25 -25 41 -33 39 -32 46 10
46 19 0 35 5 35 10 0 6 -6 10 -14 10 -8 0 -17 11 -20 25 -9 34 -22 31 -37 -7z"/>
<path d="M2412 7105 c-7 -14 -12 -43 -11 -63 0 -35 1 -35 10 -12 6 14 17 28
25 33 8 4 14 14 14 21 0 8 7 16 15 20 25 9 17 26 -13 26 -21 0 -32 -7 -40 -25z"/>
<path d="M4960 7080 c0 -5 5 -10 11 -10 5 0 7 5 4 10 -3 6 -8 10 -11 10 -2 0
-4 -4 -4 -10z"/>
<path d="M2160 7010 c0 -5 18 -10 40 -10 22 0 40 5 40 10 0 6 -18 10 -40 10
-22 0 -40 -4 -40 -10z"/>
<path d="M4880 7010 c0 -5 5 -10 10 -10 6 0 10 5 10 10 0 6 -4 10 -10 10 -5 0
-10 -4 -10 -10z"/>
<path d="M4900 6960 c0 -5 -3 -15 -6 -24 -5 -13 1 -16 25 -16 17 0 31 5 31 10
0 6 -5 10 -11 10 -5 0 -8 4 -5 9 3 5 -3 11 -14 14 -11 3 -20 1 -20 -3z"/>
<path d="M2290 6906 c0 -8 7 -16 15 -20 8 -3 15 -15 15 -26 0 -11 5 -20 10
-20 6 0 10 8 10 18 0 9 3 27 6 40 6 19 3 22 -25 22 -20 0 -31 -5 -31 -14z"/>
<path d="M4938 6903 c-16 -2 -28 -9 -28 -14 0 -6 6 -7 13 -3 8 6 8 3 -1 -9 -8
-9 -11 -21 -7 -27 10 -16 45 -12 45 5 0 9 9 15 21 15 14 0 19 5 17 17 -3 19
-17 23 -60 16z"/>
<path d="M4998 6810 c-2 -42 0 -50 15 -50 13 0 17 8 17 34 0 19 3 41 6 50 4
11 0 16 -14 16 -17 0 -21 -8 -24 -50z"/>
<path d="M5040 6760 c0 -64 3 -80 15 -80 18 0 18 4 6 48 -6 20 -6 30 0 27 5
-4 9 14 9 39 0 34 -4 46 -15 46 -12 0 -15 -16 -15 -80z"/>
<path d="M2260 6795 c0 -21 -30 -51 -41 -41 -2 2 -5 -16 -7 -40 -2 -34 1 -44
13 -44 8 0 15 9 15 20 0 11 6 23 13 26 13 5 25 104 12 104 -3 0 -5 -11 -5 -25z"/>
<path d="M4928 6797 c-33 -13 -35 -46 -2 -39 17 3 23 -1 27 -19 4 -24 4 -24 6
-1 0 12 6 22 11 22 14 0 13 13 -2 32 -10 11 -19 13 -40 5z"/>
<path d="M2081 6734 c0 -11 3 -14 6 -6 3 7 2 16 -1 19 -3 4 -6 -2 -5 -13z"/>
<path d="M4871 6704 c0 -11 3 -14 6 -6 3 7 2 16 -1 19 -3 4 -6 -2 -5 -13z"/>
<path d="M5030 6625 c0 -19 4 -35 8 -35 4 0 6 16 4 35 -2 19 -6 35 -8 35 -2 0
-4 -16 -4 -35z"/>
<path d="M4930 6575 c0 -14 2 -25 4 -25 2 0 6 11 8 25 3 14 1 25 -3 25 -5 0
-9 -11 -9 -25z"/>
<path d="M4992 6543 c-11 -21 3 -67 18 -58 13 8 13 75 0 75 -5 0 -13 -8 -18
-17z"/>
<path d="M5031 6440 c-6 -117 -14 -153 -31 -157 -16 -4 -19 -17 -22 -81 -4
-92 0 -122 14 -122 6 0 8 9 5 20 -3 11 -1 20 4 20 5 0 9 -18 9 -40 0 -29 4
-40 15 -40 10 0 15 10 15 34 0 18 7 39 15 46 18 15 22 166 4 155 -7 -5 -9 21
-7 83 2 50 0 88 -4 86 -3 -2 -8 2 -11 8 -2 7 -5 2 -6 -12z m6 -282 c-2 -24 -4
-5 -4 42 0 47 2 66 4 43 2 -24 2 -62 0 -85z"/>
<path d="M2105 6430 c3 -5 10 -10 16 -10 5 0 9 5 9 10 0 6 -7 10 -16 10 -8 0
-12 -4 -9 -10z"/>
<path d="M4870 6387 c0 -74 10 -117 26 -117 10 0 14 15 13 58 -1 68 -10 104
-27 110 -8 2 -12 -12 -12 -51z"/>
<path d="M4980 6398 c1 -42 1 -43 15 -18 19 33 19 60 0 60 -11 0 -15 -11 -15
-42z"/>
<path d="M2140 6400 c0 -11 5 -20 10 -20 6 0 10 9 10 20 0 11 -4 20 -10 20 -5
0 -10 -9 -10 -20z"/>
<path d="M2110 6370 c-13 -8 -12 -10 3 -10 9 0 17 5 17 10 0 12 -1 12 -20 0z"/>
<path d="M4078 6333 c7 -3 16 -2 19 1 4 3 -2 6 -13 5 -11 0 -14 -3 -6 -6z"/>
<path d="M4120 6302 c-53 -17 -59 -56 -17 -135 28 -53 43 -56 84 -15 27 27 34
41 28 57 -10 31 -78 98 -95 93z m25 -77 c0 -28 -29 -25 -33 3 -3 19 0 23 15
20 10 -2 18 -12 18 -23z"/>
<path d="M4931 6253 c0 -16 4 -37 9 -48 7 -19 8 -18 15 7 8 29 -1 68 -16 68
-5 0 -9 -12 -8 -27z"/>
<path d="M1920 6160 l0 -40 -40 0 -40 0 0 -40 c0 -29 -4 -40 -15 -40 -11 0
-15 -12 -15 -47 0 -27 -3 -58 -6 -70 -5 -19 -2 -23 15 -23 17 0 21 6 21 30 0
27 3 30 33 31 17 1 42 0 55 -1 13 -1 29 6 35 15 7 9 24 21 37 28 30 15 37 48
15 67 -13 11 -15 9 -15 -9 0 -16 -6 -21 -25 -21 -25 0 -25 1 -25 80 0 64 -3
80 -15 80 -11 0 -15 -11 -15 -40z"/>
<path d="M8800 6160 c0 -6 33 -10 80 -10 47 0 80 4 80 10 0 6 -33 10 -80 10
-47 0 -80 -4 -80 -10z"/>
<path d="M2060 6113 c0 -5 6 -16 14 -25 10 -13 15 -15 24 -6 20 20 13 38 -13
38 -14 0 -25 -3 -25 -7z"/>
<path d="M4961 6094 c0 -11 3 -14 6 -6 3 7 2 16 -1 19 -3 4 -6 -2 -5 -13z"/>
<path d="M3715 6090 c3 -5 8 -10 11 -10 2 0 4 5 4 10 0 6 -5 10 -11 10 -5 0
-7 -4 -4 -10z"/>
<path d="M4120 6054 c0 -8 5 -12 10 -9 6 3 10 10 10 16 0 5 -4 9 -10 9 -5 0
-10 -7 -10 -16z"/>
<path d="M4096 6011 c-4 -7 -5 -15 -2 -18 9 -9 19 4 14 18 -4 11 -6 11 -12 0z"/>
<path d="M4120 5970 c0 -5 7 -10 15 -10 8 0 15 5 15 10 0 6 -7 10 -15 10 -8 0
-15 -4 -15 -10z"/>
<path d="M5000 5949 c0 -7 -11 -22 -25 -35 -27 -25 -26 -65 1 -43 11 9 18 8
30 -2 15 -12 16 -11 10 9 -5 15 -2 32 8 47 21 31 20 35 -4 35 -11 0 -20 -5
-20 -11z"/>
<path d="M1764 5819 c-3 -6 -1 -16 5 -22 8 -8 11 -5 11 11 0 24 -5 28 -16 11z"/>
<path d="M5025 5800 c5 -22 2 -33 -14 -47 -26 -22 -27 -33 -2 -33 11 0 22 -8
24 -17 3 -10 5 8 6 40 l1 57 35 0 c24 0 35 5 35 15 0 11 -12 15 -46 15 -45 0
-46 0 -39 -30z"/>
<path d="M5121 5814 c0 -11 3 -14 6 -6 3 7 2 16 -1 19 -3 4 -6 -2 -5 -13z"/>
<path d="M4927 5581 c-3 -13 1 -21 14 -24 16 -4 17 -2 7 16 -15 30 -15 30 -21
8z"/>
<path d="M2628 5473 c-21 -5 -24 -23 -4 -23 8 0 16 7 20 15 3 8 4 14 3 14 -1
-1 -10 -3 -19 -6z"/>
<path d="M2551 5461 c-17 -11 -6 -32 13 -25 8 3 16 -1 18 -10 2 -10 8 -13 17
-7 10 7 10 12 -5 30 -21 24 -23 24 -43 12z"/>
<path d="M2507 5434 c-13 -13 -7 -44 8 -44 8 0 15 7 15 15 0 8 0 18 1 22 1 10
-16 15 -24 7z"/>
<path d="M7458 5403 c12 -2 32 -2 45 0 12 2 2 4 -23 4 -25 0 -35 -2 -22 -4z"/>
<path d="M5000 5392 c0 -14 11 -21 26 -15 21 8 17 23 -6 23 -11 0 -20 -4 -20
-8z"/>
<path d="M8480 5389 c0 -5 5 -7 10 -4 6 3 10 8 10 11 0 2 -4 4 -10 4 -5 0 -10
-5 -10 -11z"/>
<path d="M2742 5380 c-12 -5 -29 -7 -37 -4 -9 4 -18 -1 -22 -12 -4 -11 -15
-25 -25 -32 -22 -16 -24 -70 -4 -97 12 -16 16 -17 30 -6 9 7 16 24 16 37 0 13
5 24 10 24 6 0 10 -5 10 -11 0 -5 4 -8 9 -5 16 10 71 -6 71 -20 0 -20 17 -17
40 6 11 11 25 20 30 20 16 0 11 -32 -7 -45 -14 -11 -14 -14 -2 -31 15 -20 69
-30 69 -13 0 5 -7 26 -15 46 -8 19 -15 42 -15 51 0 20 -56 70 -99 88 -18 8
-34 14 -35 13 0 0 -11 -4 -24 -9z m58 -70 c0 -5 -4 -10 -9 -10 -6 0 -13 5 -16
10 -3 6 1 10 9 10 9 0 16 -4 16 -10z"/>
<path d="M7440 5380 c0 -6 33 -10 80 -10 47 0 80 4 80 10 0 6 -33 10 -80 10
-47 0 -80 -4 -80 -10z"/>
<path d="M1822 5346 c3 -14 1 -26 -3 -26 -5 0 -9 -18 -9 -40 l0 -40 45 0 c25
0 45 4 45 9 0 5 -13 21 -30 34 -34 29 -37 37 -15 37 23 0 18 16 -11 35 -27 17
-27 17 -22 -9z"/>
<path d="M8545 5330 c-3 -5 -1 -10 4 -10 6 0 11 5 11 10 0 6 -2 10 -4 10 -3 0
-8 -4 -11 -10z"/>
<path d="M5010 5281 c0 -23 5 -41 10 -41 6 0 10 -24 11 -52 0 -29 3 -47 6 -40
2 6 11 12 19 12 19 0 18 34 -1 50 -19 16 -19 30 1 30 12 0 14 9 12 38 -3 32
-7 37 -30 40 -27 3 -28 1 -28 -37z"/>
<path d="M2733 5213 c-13 -8 -23 -22 -23 -31 0 -13 2 -13 18 1 21 19 48 22 57
7 7 -12 35 -13 35 -2 0 7 -23 22 -60 39 -3 1 -15 -5 -27 -14z"/>
<path d="M133 5183 c-20 -8 -15 -23 7 -23 11 0 20 7 20 15 0 15 -6 17 -27 8z"/>
<path d="M2687 5157 c3 -15 9 -27 14 -27 13 0 11 13 -5 35 -13 18 -14 18 -9
-8z"/>
<path d="M2835 5170 c-4 -6 -3 -16 3 -22 6 -6 12 -6 17 2 4 6 3 16 -3 22 -6 6
-12 6 -17 -2z"/>
<path d="M5958 5163 c23 -2 61 -2 85 0 23 2 4 4 -43 4 -47 0 -66 -2 -42 -4z"/>
<path d="M1920 5140 c0 -13 7 -20 20 -20 10 0 24 9 30 20 10 18 8 20 -20 20
-23 0 -30 -4 -30 -20z"/>
<path d="M2124 5144 c3 -9 6 -19 6 -22 0 -9 20 21 20 31 0 4 -7 7 -16 7 -11 0
-14 -5 -10 -16z"/>
<path d="M2900 5141 c-7 -15 -7 -21 0 -21 12 0 25 28 17 36 -3 3 -10 -4 -17
-15z"/>
<path d="M2750 5140 c0 -5 5 -10 10 -10 6 0 10 5 10 10 0 6 -4 10 -10 10 -5 0
-10 -4 -10 -10z"/>
<path d="M5052 5130 c0 -14 2 -19 5 -12 2 6 2 18 0 25 -3 6 -5 1 -5 -13z"/>
<path d="M2189 5138 c-1 -2 -3 -15 -5 -30 -2 -25 0 -28 27 -28 l30 0 -16 30
c-13 25 -31 39 -36 28z"/>
<path d="M2320 5111 c0 -31 45 -91 67 -91 19 0 17 -74 -2 -90 -17 -14 -21 -90
-5 -90 5 0 17 11 25 24 13 19 14 29 5 46 -9 16 -8 24 5 36 8 8 15 19 15 24 0
4 10 10 22 13 22 6 22 7 -12 42 -19 19 -39 35 -45 35 -15 0 -40 42 -36 63 1
11 -4 17 -18 17 -16 0 -21 -6 -21 -29z"/>
<path d="M4999 5105 c-2 -31 2 -49 13 -56 5 -3 10 -20 10 -38 1 -30 18 -57 18
-28 0 60 -38 172 -41 122z"/>
<path d="M1991 5094 c0 -11 3 -14 6 -6 3 7 2 16 -1 19 -3 4 -6 -2 -5 -13z"/>
<path d="M2715 5100 c3 -5 13 -10 21 -10 8 0 12 5 9 10 -3 6 -13 10 -21 10 -8
0 -12 -4 -9 -10z"/>
<path d="M2800 5096 c0 -18 31 -29 44 -16 8 8 7 14 -4 20 -22 14 -40 12 -40
-4z"/>
<path d="M5041 5064 c0 -11 3 -14 6 -6 3 7 2 16 -1 19 -3 4 -6 -2 -5 -13z"/>
<path d="M2247 5063 c-13 -12 -7 -43 7 -43 8 0 16 -5 18 -11 5 -15 68 -1 68
15 0 7 -16 20 -35 29 -39 19 -48 20 -58 10z"/>
<path d="M2080 5014 c0 -10 12 -14 43 -13 23 1 33 4 23 6 -14 4 -16 7 -6 13 8
5 -1 8 -24 8 -24 0 -36 -5 -36 -14z"/>
<path d="M2212 4988 c6 -18 28 -21 28 -4 0 9 -7 16 -16 16 -9 0 -14 -5 -12
-12z"/>
<path d="M2462 4958 c2 -18 10 -24 36 -26 23 -2 32 1 32 12 0 17 -5 21 -43 30
-26 6 -28 4 -25 -16z"/>
<path d="M2270 4935 c0 -8 6 -15 14 -15 8 0 16 -6 19 -12 2 -7 7 -10 11 -6 8
7 -23 48 -36 48 -5 0 -8 -7 -8 -15z"/>
<path d="M2425 4930 c-3 -5 1 -10 9 -10 9 0 13 -6 10 -14 -4 -11 34 -46 51
-46 11 0 4 23 -16 51 -21 29 -43 37 -54 19z"/>
<path d="M2530 4904 c-6 -14 -10 -31 -10 -39 0 -8 -4 -16 -10 -20 -6 -3 -5
-15 2 -30 9 -21 18 -25 55 -25 37 0 43 3 43 21 0 11 -7 28 -16 37 -15 14 -15
16 5 24 11 4 21 11 21 16 0 16 -29 34 -45 28 -8 -3 -15 -1 -15 4 0 20 -21 9
-30 -16z m27 -56 c-3 -7 -5 -2 -5 12 0 14 2 19 5 13 2 -7 2 -19 0 -25z"/>
<path d="M5165 4910 c3 -5 8 -10 11 -10 2 0 4 5 4 10 0 6 -5 10 -11 10 -5 0
-7 -4 -4 -10z"/>
<path d="M5240 4880 c0 -5 -10 -18 -22 -30 -21 -20 -21 -20 -1 -20 22 0 63 31
63 49 0 6 -9 11 -20 11 -11 0 -20 -4 -20 -10z"/>
<path d="M2664 4855 c-18 -13 -16 -14 23 -15 32 0 41 -3 37 -14 -3 -8 -1 -17
5 -20 6 -4 8 -13 5 -20 -11 -28 15 -25 36 3 l21 30 -23 12 c-13 7 -27 18 -31
25 -11 18 -48 18 -73 -1z"/>
<path d="M8480 4829 c0 -5 5 -7 10 -4 6 3 10 8 10 11 0 2 -4 4 -10 4 -5 0 -10
-5 -10 -11z"/>
<path d="M2403 4769 c4 -13 7 -27 7 -31 0 -5 5 -8 11 -8 15 0 6 53 -10 58 -10
4 -12 -1 -8 -19z"/>
<path d="M2482 4760 c0 -19 2 -27 5 -17 2 9 2 25 0 35 -3 9 -5 1 -5 -18z"/>
<path d="M2678 4783 c6 -2 18 -2 25 0 6 3 1 5 -13 5 -14 0 -19 -2 -12 -5z"/>
<path d="M5135 4770 c-11 -5 -14 -9 -7 -9 7 -1 11 -5 7 -11 -6 -10 15 -50 28
-50 5 0 7 10 5 23 -2 16 2 22 15 21 25 -3 17 30 -8 33 -11 1 -29 -2 -40 -7z"/>
<path d="M8545 4770 c-3 -5 -1 -10 4 -10 6 0 11 5 11 10 0 6 -2 10 -4 10 -3 0
-8 -4 -11 -10z"/>
<path d="M6480 4745 c0 -11 11 -15 40 -15 29 0 40 4 40 15 0 11 -11 15 -40 15
-29 0 -40 -4 -40 -15z"/>
<path d="M7023 4753 c-28 -5 -30 -33 -3 -33 11 0 20 7 20 15 0 8 4 15 9 15 5
0 5 -15 1 -35 -6 -27 -5 -35 6 -35 9 0 12 12 11 40 -1 22 -6 39 -12 39 -5 -1
-20 -4 -32 -6z"/>
<path d="M6640 4730 c0 -5 18 -10 40 -10 22 0 40 5 40 10 0 6 -18 10 -40 10
-22 0 -40 -4 -40 -10z"/>
<path d="M2720 4719 c0 -5 -5 -7 -12 -3 -8 5 -9 2 -5 -10 4 -10 7 -20 7 -22 0
-2 6 -4 14 -4 9 0 13 10 12 25 -1 24 -16 37 -16 14z"/>
<path d="M2509 4698 c-10 -19 -9 -20 23 -16 32 3 33 2 30 -27 -3 -28 -1 -31
24 -30 24 0 29 -5 34 -30 7 -38 52 -48 70 -16 9 18 8 21 -10 21 -13 0 -20 7
-20 19 0 24 -18 36 -47 33 -11 -2 -24 2 -28 8 -9 15 13 40 36 40 10 0 20 4 24
10 3 5 -20 9 -60 9 -55 -1 -67 -4 -76 -21z"/>
<path d="M5224 4705 c-3 -8 -3 -19 1 -25 11 -18 25 -11 25 15 0 27 -17 34 -26
10z"/>
<path d="M5176 4681 c-6 -8 20 -105 36 -138 11 -23 38 -32 38 -13 0 6 7 10 15
10 8 0 15 -5 15 -10 0 -6 14 3 30 20 30 31 38 50 21 50 -5 0 -11 -7 -15 -15
-3 -8 -17 -15 -31 -15 -14 0 -25 -5 -25 -11 0 -21 -45 -4 -48 19 -3 23 21 32
33 12 8 -13 25 -13 25 0 0 6 -11 16 -25 22 -14 6 -25 18 -25 27 0 19 -37 54
-44 42z"/>
<path d="M7080 4665 c0 -8 2 -15 4 -15 2 0 6 7 10 15 3 8 1 15 -4 15 -6 0 -10
-7 -10 -15z"/>
<path d="M7159 4637 c-3 -33 0 -47 8 -47 18 0 20 49 3 79 -5 9 -9 -3 -11 -32z"/>
<path d="M6175 4598 c-5 -50 -4 -73 4 -76 6 -2 11 -10 11 -19 0 -18 25 -11 26
8 1 8 2 31 3 52 1 26 6 37 16 37 18 0 18 -1 4 39 -8 23 -17 31 -34 31 -21 0
-24 -6 -30 -72z"/>
<path d="M6928 4643 c7 -3 16 -2 19 1 4 3 -2 6 -13 5 -11 0 -14 -3 -6 -6z"/>
<path d="M2560 4579 c0 -11 5 -17 10 -14 6 3 10 13 10 21 0 8 -4 14 -10 14 -5
0 -10 -9 -10 -21z"/>
<path d="M2588 4553 c-2 -4 -3 -14 -2 -20 1 -7 2 -21 3 -32 0 -10 12 -30 25
-44 13 -15 19 -28 13 -30 -7 -2 -7 -10 -2 -23 7 -16 9 -16 12 -3 5 21 47 43
67 36 20 -8 23 28 4 37 -10 5 -10 7 0 12 14 6 17 24 4 24 -5 0 -14 -10 -20
-22 -6 -13 -11 -17 -11 -10 -1 6 -12 12 -26 12 -19 0 -26 7 -33 32 -8 31 -26
47 -34 31z"/>
<path d="M2698 4528 c-25 -30 -23 -43 3 -17 11 11 19 24 17 29 -2 5 -11 0 -20
-12z"/>
<path d="M6140 4475 c0 -28 4 -35 20 -35 16 0 20 6 19 33 -1 30 -1 31 -9 7
l-8 -25 -1 28 c-1 40 -21 33 -21 -8z"/>
<path d="M7120 4481 c0 -12 6 -21 16 -21 9 0 14 7 12 17 -5 25 -28 28 -28 4z"/>
<path d="M2560 4457 c0 -9 -5 -17 -12 -19 -9 -3 -8 -9 3 -24 14 -19 14 -19 36
3 16 17 18 23 8 23 -8 0 -14 5 -12 11 1 6 -4 14 -10 16 -7 3 -13 -2 -13 -10z"/>
<path d="M2472 4438 c5 -15 28 -23 28 -10 0 5 -7 13 -16 16 -10 4 -14 1 -12
-6z"/>
<path d="M5335 4386 c0 -37 6 -61 18 -74 9 -10 17 -23 17 -28 0 -12 200 -12
218 -1 6 5 12 5 12 0 0 -13 60 -36 91 -35 16 0 39 8 51 16 12 9 30 16 40 16
10 0 18 5 18 10 0 6 -18 10 -40 10 -22 0 -40 -4 -40 -9 0 -14 -70 -18 -88 -5
-18 13 -12 18 30 26 15 3 15 5 -3 26 -18 23 -19 23 -36 6 -17 -17 -18 -17 -21
3 -2 15 -11 20 -39 21 -20 1 -39 -1 -44 -4 -16 -9 3 -34 27 -34 14 0 24 -6 24
-14 0 -11 -15 -14 -62 -12 -69 2 -127 22 -129 46 -1 8 -2 22 -3 30 -1 17 -28
60 -37 60 -3 0 -5 -24 -4 -54z"/>
<path d="M5590 4420 c0 -35 46 -53 68 -27 7 8 7 17 -2 30 -16 21 -66 19 -66
-3z"/>
<path d="M7200 4430 c0 -5 6 -10 14 -10 18 0 30 -33 21 -59 -3 -10 -1 -29 4
-42 9 -23 10 -22 10 9 1 17 6 32 11 32 13 0 1 50 -16 67 -15 15 -44 17 -44 3z"/>
<path d="M7270 4430 c0 -5 7 -7 15 -4 8 4 15 8 15 10 0 2 -7 4 -15 4 -8 0 -15
-4 -15 -10z"/>
<path d="M5396 4405 c-3 -8 -1 -27 5 -42 7 -20 13 -23 21 -15 7 7 21 12 33 13
11 0 14 3 7 6 -7 3 -17 16 -22 29 -11 27 -35 32 -44 9z"/>
<path d="M7340 4400 c0 -5 5 -10 10 -10 6 0 10 5 10 10 0 6 -4 10 -10 10 -5 0
-10 -4 -10 -10z"/>
<path d="M2432 4388 c-14 -14 -16 -52 -2 -43 19 12 24 -27 6 -41 -10 -7 -15
-17 -11 -23 10 -17 22 -13 28 10 4 15 11 20 22 15 9 -3 23 -2 33 3 9 5 24 12
33 14 20 7 22 56 3 64 -7 3 -25 -5 -40 -16 -34 -27 -41 -26 -51 4 -7 21 -11
23 -21 13z"/>
<path d="M2317 4367 c-68 -9 -78 -13 -74 -28 3 -10 -2 -27 -9 -38 -9 -12 -11
-22 -4 -26 16 -10 11 -28 -6 -21 -17 6 -54 -9 -54 -23 0 -5 17 -11 38 -13 20
-3 46 -8 56 -13 17 -7 18 -5 12 18 -3 14 -2 29 4 32 18 11 10 25 -15 25 -14 0
-25 5 -25 10 0 6 9 10 20 10 11 0 20 5 20 10 0 6 9 10 19 10 11 0 23 5 26 10
3 6 21 10 40 10 28 0 33 4 32 20 -1 11 -1 19 -2 18 0 0 -35 -6 -78 -11z"/>
<path d="M5800 4354 c0 -3 6 -11 13 -18 17 -17 107 -9 107 10 0 10 -15 14 -60
14 -33 0 -60 -3 -60 -6z"/>
<path d="M7322 4325 c0 -16 2 -22 5 -12 2 9 2 23 0 30 -3 6 -5 -1 -5 -18z"/>
<path d="M2080 4248 c0 -36 4 -35 14 5 4 16 2 27 -4 27 -5 0 -10 -14 -10 -32z"/>
<path d="M5810 4273 c-20 -7 -50 -34 -50 -45 0 -4 12 -8 28 -8 15 0 36 -7 46
-15 27 -20 50 -19 71 5 23 26 12 37 -19 20 -25 -13 -56 -8 -56 8 0 5 14 7 30
4 40 -6 39 13 -1 27 -18 6 -32 11 -33 10 -1 0 -8 -3 -16 -6z"/>
<path d="M2132 4210 c0 -14 2 -19 5 -12 2 6 2 18 0 25 -3 6 -5 1 -5 -13z"/>
<path d="M2057 4163 c-11 -10 -8 -35 2 -28 5 3 12 1 16 -5 13 -21 23 -9 12 15
-12 26 -19 30 -30 18z"/>
<path d="M7340 4140 c0 -11 5 -20 10 -20 6 0 10 9 10 20 0 11 -4 20 -10 20 -5
0 -10 -9 -10 -20z"/>
<path d="M1917 4129 c-20 -22 -11 -44 15 -37 9 2 12 12 8 31 l-5 28 -18 -22z"/>
<path d="M1975 4130 c-3 -5 1 -10 9 -10 9 0 16 5 16 10 0 6 -4 10 -9 10 -6 0
-13 -4 -16 -10z"/>
<path d="M2007 4123 c-4 -3 -7 -14 -7 -23 0 -13 6 -16 25 -12 28 5 33 27 9 36
-19 7 -19 7 -27 -1z"/>
<path d="M7238 4073 c-5 -54 -4 -58 11 -48 13 8 15 95 2 95 -5 0 -11 -21 -13
-47z"/>
<path d="M2050 4085 c-13 -15 -7 -45 8 -45 17 0 33 27 26 44 -8 20 -18 20 -34
1z"/>
<path d="M1860 4060 c-9 -18 -8 -20 15 -20 27 0 28 1 19 24 -8 22 -21 20 -34
-4z"/>
<path d="M60 4050 c-11 -7 2 -10 43 -10 31 0 57 4 57 10 0 13 -80 13 -100 0z"/>
<path d="M1991 4013 c1 -17 3 -21 6 -10 2 9 9 17 14 17 5 0 9 5 9 10 0 6 -7
10 -15 10 -10 0 -15 -9 -14 -27z"/>
<path d="M1790 3995 c-19 -19 -29 -35 -22 -35 6 0 12 -6 12 -14 0 -8 7 -16 15
-20 8 -3 15 -12 15 -20 0 -8 12 -27 26 -43 l25 -28 17 21 c20 25 100 80 136
94 14 5 26 14 26 20 0 16 -37 12 -44 -5 -7 -20 -26 -19 -42 3 -10 14 -15 15
-25 5 -11 -11 -10 -13 1 -13 7 0 -7 -20 -32 -45 -25 -25 -48 -45 -50 -45 -2 0
-5 12 -6 27 -1 15 -7 30 -12 33 -6 4 -12 20 -13 36 -2 23 2 30 21 32 19 3 21
6 11 18 -16 19 -19 18 -59 -21z"/>
<path d="M2025 4019 c-4 -6 -5 -13 -2 -16 7 -7 27 6 27 18 0 12 -17 12 -25 -2z"/>
<path d="M2058 3983 c6 -2 18 -2 25 0 6 3 1 5 -13 5 -14 0 -19 -2 -12 -5z"/>
<path d="M1866 3965 c-3 -9 0 -15 9 -15 8 0 15 7 15 15 0 8 -4 15 -9 15 -5 0
-11 -7 -15 -15z"/>
<path d="M7260 3855 c0 -28 24 -34 34 -9 8 20 -1 34 -20 34 -8 0 -14 -10 -14
-25z"/>
<path d="M1727 3823 c-27 -14 -28 -16 -11 -34 9 -10 12 -19 6 -19 -6 0 -17 -7
-26 -15 -13 -14 -15 -12 -13 12 1 19 -3 28 -16 31 -22 4 -49 -26 -43 -50 2
-10 -4 -18 -17 -22 -17 -4 -19 -8 -9 -18 6 -6 12 -20 12 -30 0 -10 6 -18 13
-18 19 0 37 21 37 42 0 10 5 18 11 18 6 0 23 9 38 19 14 10 37 21 50 22 32 5
39 27 10 31 -12 2 -24 9 -27 17 -3 10 2 11 19 6 13 -4 26 -12 27 -16 6 -14 21
-10 44 11 25 23 16 40 -12 22 -12 -7 -20 -8 -20 -2 0 14 -40 11 -73 -7z m-77
-123 c0 -5 -4 -10 -10 -10 -5 0 -10 5 -10 10 0 6 5 10 10 10 6 0 10 -4 10 -10z"/>
<path d="M7225 3820 c-4 -7 -10 -50 -13 -96 -5 -81 -4 -84 17 -84 18 0 21 6
22 38 0 20 1 61 2 91 2 52 -12 77 -28 51z"/>
<path d="M1520 3785 c0 -11 11 -15 40 -15 29 0 40 4 40 15 0 11 -11 15 -40 15
-29 0 -40 -4 -40 -15z"/>
<path d="M3343 3735 c1 -19 3 -35 5 -35 6 0 32 28 32 35 0 8 -26 35 -34 35 -3
0 -5 -16 -3 -35z"/>
<path d="M1560 3660 c0 -24 15 -27 24 -4 9 22 8 24 -9 24 -8 0 -15 -9 -15 -20z"/>
<path d="M3210 3660 c0 -5 5 -10 10 -10 6 0 10 5 10 10 0 6 -4 10 -10 10 -5 0
-10 -4 -10 -10z"/>
<path d="M3258 3663 c7 -3 16 -2 19 1 4 3 -2 6 -13 5 -11 0 -14 -3 -6 -6z"/>
<path d="M1606 3642 c2 -3 -4 -11 -13 -17 -15 -11 -15 -15 -4 -29 7 -9 17 -16
21 -16 15 0 20 45 6 56 -7 6 -11 9 -10 6z"/>
<path d="M3102 3628 c2 -12 11 -24 21 -26 14 -3 18 1 15 20 -2 12 -11 24 -21
26 -14 3 -18 -1 -15 -20z"/>
<path d="M3182 3610 c-13 -36 -5 -43 28 -24 15 8 19 13 10 14 -13 0 -13 1 0
10 11 7 11 10 2 10 -7 0 -10 5 -7 10 3 6 0 10 -8 10 -8 0 -20 -13 -25 -30z"/>
<path d="M3235 3630 c-3 -5 0 -10 7 -10 8 0 9 -3 3 -8 -5 -4 -10 -14 -10 -22
0 -8 -5 -15 -12 -15 -6 0 -14 -3 -17 -6 -3 -3 2 -6 12 -6 22 0 41 25 42 55 0
23 -14 30 -25 12z"/>
<path d="M7120 3591 c0 -11 -6 -22 -12 -24 -7 -3 -1 -5 13 -4 21 1 25 5 21 24
-5 28 -22 31 -22 4z"/>
<path d="M1527 3593 c-10 -10 -8 -53 2 -53 5 0 12 6 14 13 4 9 6 9 6 -1 2 -26
-19 -51 -36 -45 -11 5 -14 3 -9 -6 5 -8 0 -18 -13 -27 -11 -8 -25 -29 -29 -47
-5 -18 -14 -31 -21 -29 -6 1 -11 -4 -11 -11 0 -8 -9 -22 -19 -31 -11 -10 -21
-32 -23 -50 -2 -17 -7 -29 -13 -26 -10 5 -26 -53 -28 -109 -2 -28 2 -34 20
-37 19 -3 23 2 28 34 14 93 30 144 65 197 21 33 59 97 75 126 5 11 15 19 22
19 16 0 29 43 14 48 -6 2 -11 12 -11 23 0 18 -20 26 -33 12z"/>
<path d="M3063 3575 c0 -8 6 -15 14 -15 7 0 13 7 13 15 0 8 -6 15 -13 15 -8 0
-14 -7 -14 -15z"/>
<path d="M3320 3525 c0 -18 5 -25 20 -25 11 0 20 -4 20 -10 0 -5 18 -10 40
-10 29 0 40 4 40 15 0 11 -11 15 -40 15 -33 0 -40 3 -40 20 0 13 -7 20 -20 20
-15 0 -20 -7 -20 -25z"/>
<path d="M3623 3508 c1 -14 -3 -22 -11 -20 -10 2 -10 -2 -2 -17 5 -11 10 -31
10 -45 0 -14 5 -26 10 -26 6 0 8 16 5 40 -3 22 -1 40 3 40 4 0 8 11 8 25 1 15
-3 25 -12 25 -8 0 -13 -9 -11 -22z"/>
<path d="M1431 3481 c-10 -7 -10 -10 -1 -16 6 -4 16 -3 22 3 13 13 -4 23 -21
13z"/>
<path d="M3020 3476 c0 -7 7 -27 16 -42 l16 -29 -6 34 c-3 18 -6 37 -6 42 0 5
-4 9 -10 9 -5 0 -10 -6 -10 -14z"/>
<path d="M3520 3430 c0 -11 5 -20 10 -20 6 0 10 9 10 20 0 11 -4 20 -10 20 -5
0 -10 -9 -10 -20z"/>
<path d="M2940 3391 c0 -6 5 -13 10 -16 6 -3 10 1 10 9 0 9 -4 16 -10 16 -5 0
-10 -4 -10 -9z"/>
<path d="M3200 3383 c0 -9 14 -13 40 -13 29 0 40 4 40 15 0 12 -10 15 -40 13
-25 -1 -40 -7 -40 -15z"/>
<path d="M3360 3385 c0 -12 20 -15 120 -15 100 0 120 3 120 15 0 13 -20 15
-120 15 -100 0 -120 -2 -120 -15z"/>
<path d="M1365 3369 c-4 -6 -5 -12 -2 -15 2 -3 7 2 10 11 7 17 1 20 -8 4z"/>
<path d="M6978 3326 c-10 -7 -18 -25 -18 -39 0 -14 -5 -29 -11 -33 -6 -3 -9
-14 -6 -24 2 -9 -1 -27 -8 -40 -13 -24 -9 -60 6 -60 6 0 12 7 15 15 8 19 24
20 24 1 0 -7 6 -19 13 -25 20 -16 34 187 15 205 -10 10 -17 10 -30 0z m29 -68
c-2 -13 -4 -3 -4 22 0 25 2 35 4 23 2 -13 2 -33 0 -45z"/>
<path d="M3120 3280 c0 -22 5 -40 10 -40 6 0 10 18 10 40 0 22 -4 40 -10 40
-5 0 -10 -18 -10 -40z"/>
<path d="M3180 3280 c0 -22 5 -40 10 -40 6 0 10 18 10 40 0 22 -4 40 -10 40
-5 0 -10 -18 -10 -40z"/>
<path d="M3630 3304 c0 -9 5 -14 12 -12 18 6 21 28 4 28 -9 0 -16 -7 -16 -16z"/>
<path d="M7068 3275 c-3 -37 0 -45 14 -45 9 0 20 5 23 10 3 6 17 10 30 10 24
0 55 23 55 41 0 17 -43 9 -61 -13 l-19 -21 0 31 c0 25 -4 32 -19 32 -15 0 -20
-9 -23 -45z"/>
<path d="M3540 3160 c0 -73 2 -80 20 -80 18 0 20 7 20 80 0 73 -2 80 -20 80
-18 0 -20 -7 -20 -80z"/>
<path d="M3601 3224 c0 -11 3 -14 6 -6 3 7 2 16 -1 19 -3 4 -6 -2 -5 -13z"/>
<path d="M2902 3205 c0 -16 3 -52 8 -80 6 -41 7 -44 8 -15 0 19 -3 55 -7 80
-6 33 -9 37 -9 15z"/>
<path d="M1300 3170 c0 -19 3 -21 12 -12 9 9 9 15 0 24 -9 9 -12 7 -12 -12z"/>
<path d="M2313 3150 c-45 -20 -49 -26 -33 -50 7 -12 14 -12 43 -2 55 20 95 15
122 -14 13 -14 27 -35 30 -45 11 -34 25 -20 25 24 -1 51 -15 72 -63 92 -47 20
-73 19 -124 -5z"/>
<path d="M2953 3120 c0 -25 2 -35 4 -22 2 12 2 32 0 45 -2 12 -4 2 -4 -23z"/>
<path d="M1396 3082 c-4 -12 -14 -22 -22 -22 -8 0 -14 -9 -14 -20 0 -24 15
-27 24 -4 3 8 10 12 16 9 15 -9 23 21 12 41 -9 16 -10 15 -16 -4z"/>
<path d="M1414 3015 c-4 -8 -11 -15 -18 -15 -6 0 -18 -9 -26 -20 -8 -12 -26
-20 -42 -20 -15 0 -28 -4 -28 -10 0 -5 14 -10 30 -10 21 0 30 -5 30 -16 0 -8
5 -12 11 -8 8 4 8 9 0 17 -17 17 -13 27 12 27 15 0 29 -11 41 -30 9 -17 22
-27 28 -24 7 4 6 9 -2 14 -7 4 -9 13 -6 19 11 17 36 13 36 -5 0 -8 20 -34 45
-58 35 -32 43 -44 33 -54 -17 -17 -1 -29 21 -15 20 13 47 1 37 -16 -4 -6 -12
-9 -17 -6 -5 4 -9 1 -9 -4 0 -12 2 -13 45 -16 17 -1 33 3 37 9 8 12 80 -23 81
-39 1 -15 -34 -19 -43 -5 -5 9 -9 9 -14 1 -11 -17 54 -42 76 -30 10 5 30 8 46
7 22 -1 28 -7 27 -22 -1 -11 -7 -22 -13 -24 -7 -2 -12 -7 -12 -12 0 -9 32 -7
67 4 25 8 41 -9 17 -18 -12 -5 -14 -14 -9 -38 9 -42 9 -42 33 -29 16 8 20 21
20 61 0 27 -4 50 -8 50 -4 0 -24 11 -44 25 -21 14 -41 23 -45 20 -10 -5 -71
17 -71 26 0 16 -82 59 -113 59 -28 0 -46 12 -105 69 -40 38 -72 74 -72 80 0 5
-9 15 -20 21 -11 6 -19 14 -19 18 5 32 -26 47 -37 17z m34 -43 c3 -16 -1 -19
-17 -15 -24 6 -23 5 -15 28 9 21 28 14 32 -13z"/>
<path d="M2865 2930 c-3 -5 -1 -10 4 -10 6 0 11 5 11 10 0 6 -2 10 -4 10 -3 0
-8 -4 -11 -10z"/>
<path d="M3790 2920 c8 -5 24 -9 35 -9 l20 0 -20 9 c-11 5 -27 9 -35 9 -13 1
-13 0 0 -9z"/>
<path d="M1900 2911 c0 -5 11 -19 25 -32 13 -13 25 -27 25 -31 0 -11 38 -48
50 -48 5 0 14 -9 20 -21 7 -11 14 -18 17 -16 7 8 -27 58 -69 100 -21 21 -38
43 -38 48 0 5 -7 9 -15 9 -8 0 -15 -4 -15 -9z"/>
<path d="M3120 2880 c0 -22 5 -40 10 -40 6 0 10 18 10 40 0 22 -4 40 -10 40
-5 0 -10 -18 -10 -40z"/>
<path d="M3180 2880 c0 -22 5 -40 10 -40 6 0 10 18 10 40 0 22 -4 40 -10 40
-5 0 -10 -18 -10 -40z"/>
<path d="M3724 2909 c-8 -14 6 -31 22 -25 8 3 14 -1 14 -10 0 -19 24 -13 28 7
3 17 -55 42 -64 28z"/>
<path d="M5263 2908 c-13 -6 -23 -15 -23 -20 0 -13 38 -9 47 6 4 7 15 16 23
19 11 4 9 5 -5 6 -11 0 -30 -5 -42 -11z"/>
<path d="M7050 2905 c0 -10 11 -15 35 -15 24 0 35 5 35 15 0 10 -11 15 -35 15
-24 0 -35 -5 -35 -15z"/>
<path d="M6979 2904 c-1 -5 -1 -17 0 -26 1 -10 -2 -18 -6 -18 -5 0 -10 -13
-11 -30 -1 -16 2 -30 7 -30 5 0 7 -9 4 -20 -3 -11 -1 -20 5 -20 6 0 8 -10 4
-22 -3 -14 -1 -19 6 -14 7 4 9 25 5 57 -4 36 -2 53 7 59 8 5 9 13 4 21 -5 8
-9 20 -10 27 -3 17 -14 29 -15 16z"/>
<path d="M2468 2873 c-21 -25 -38 -59 -32 -66 3 -2 18 0 35 6 24 9 29 17 29
44 0 37 -10 41 -32 16z"/>
<path d="M2772 2863 c-5 -10 -7 -24 -5 -30 3 -7 -3 -13 -11 -13 -9 0 -20 -8
-23 -17 -14 -37 -53 -63 -96 -64 -64 0 -120 -13 -125 -27 -4 -13 34 -17 42 -4
3 5 26 6 51 2 37 -6 51 -3 70 12 14 11 40 22 59 25 24 4 33 10 31 22 -3 20 12
51 25 51 6 0 10 -10 11 -22 l0 -23 11 22 c8 16 7 30 -3 52 -16 35 -24 38 -37
14z"/>
<path d="M5185 2859 c-4 -6 -2 -14 4 -18 8 -5 6 -15 -7 -32 -23 -28 -37 -69
-25 -69 5 0 17 15 28 33 20 33 23 40 27 71 3 22 -17 33 -27 15z"/>
<path d="M1460 2840 c0 -11 -4 -20 -10 -20 -5 0 -10 -4 -10 -8 0 -4 18 -8 40
-7 22 0 40 3 40 8 0 4 -4 7 -9 7 -5 0 -13 9 -16 20 -3 11 -13 20 -21 20 -8 0
-14 -9 -14 -20z"/>
<path d="M3360 2800 l0 -40 40 0 40 0 0 40 0 40 -40 0 -40 0 0 -40z"/>
<path d="M3682 2802 c-2 -35 1 -42 16 -42 15 0 19 8 20 40 1 22 -3 40 -9 40
-5 0 -7 -4 -4 -10 3 -5 2 -10 -4 -10 -5 0 -11 6 -13 12 -3 7 -5 -6 -6 -30z"/>
<path d="M5624 2824 c3 -9 6 -18 6 -20 0 -12 21 -1 30 16 9 18 8 20 -16 20
-20 0 -25 -4 -20 -16z"/>
<path d="M5732 2829 c2 -6 8 -10 13 -10 5 0 11 4 13 10 2 6 -4 11 -13 11 -9 0
-15 -5 -13 -11z"/>
<path d="M5850 2800 c-13 -9 -13 -10 0 -10 8 0 22 5 30 10 13 9 13 10 0 10 -8
0 -22 -5 -30 -10z"/>
<path d="M6040 2780 c0 -24 6 -25 26 -6 19 20 18 26 -6 26 -13 0 -20 -7 -20
-20z"/>
<path d="M5271 2764 c0 -11 3 -14 6 -6 3 7 2 16 -1 19 -3 4 -6 -2 -5 -13z"/>
<path d="M5820 2770 c0 -5 10 -10 23 -10 18 0 19 2 7 10 -19 13 -30 13 -30 0z"/>
<path d="M2353 2750 c-10 -11 -25 -20 -34 -20 -9 0 -22 -7 -29 -15 -10 -12 -4
-19 36 -45 43 -27 74 -38 74 -26 0 2 3 11 6 19 4 11 -2 16 -23 19 -34 4 -43
33 -14 43 11 3 30 1 42 -5 25 -14 81 -4 58 11 -7 5 -26 9 -41 9 -16 0 -28 4
-28 9 0 19 -31 20 -47 1z"/>
<path d="M6000 2725 c0 -33 4 -45 15 -45 11 0 15 11 15 39 0 25 -5 41 -15 45
-12 4 -15 -4 -15 -39z"/>
<path d="M3613 2748 c2 -7 10 -13 17 -13 7 0 15 6 18 13 2 7 -5 12 -18 12 -13
0 -20 -5 -17 -12z"/>
<path d="M6900 2750 c0 -5 5 -10 10 -10 6 0 10 5 10 10 0 6 -4 10 -10 10 -5 0
-10 -4 -10 -10z"/>
<path d="M1612 2697 c-14 -88 -14 -99 -1 -95 9 3 14 21 14 52 1 43 -9 73 -13
43z"/>
<path d="M5191 2694 c0 -11 3 -14 6 -6 3 7 2 16 -1 19 -3 4 -6 -2 -5 -13z"/>
<path d="M6200 2694 c0 -17 22 -14 28 4 2 7 -3 12 -12 12 -9 0 -16 -7 -16 -16z"/>
<path d="M6888 2684 c-12 -26 -3 -54 20 -62 15 -5 34 35 27 57 -10 31 -34 34
-47 5z"/>
<path d="M1780 2681 c0 -25 35 -30 44 -6 3 8 1 15 -3 15 -5 0 -16 3 -25 6 -12
4 -16 0 -16 -15z"/>
<path d="M2185 2691 c-17 -7 -16 -9 14 -16 19 -4 35 -15 38 -25 3 -10 17 -23
31 -30 24 -12 25 -14 7 -17 -11 -3 -39 -11 -62 -20 -28 -10 -54 -13 -75 -8
-18 4 -56 9 -84 11 -45 4 -56 1 -83 -21 -17 -15 -31 -31 -31 -36 0 -17 32 -9
51 12 17 19 19 20 50 4 27 -14 38 -15 74 -5 27 7 56 9 76 4 19 -5 50 -7 70 -5
29 2 37 -2 46 -21 12 -23 12 -23 12 -1 1 12 -3 25 -9 28 -5 3 -10 17 -10 31 0
23 4 24 58 25 55 1 55 2 18 9 -22 4 -45 15 -51 24 -7 9 -22 16 -33 16 -11 0
-24 5 -27 10 -4 6 -11 7 -17 4 -7 -5 -9 0 -6 14 5 18 2 22 -15 21 -12 0 -31
-4 -42 -8z"/>
<path d="M2560 2690 c0 -5 5 -10 11 -10 5 0 7 5 4 10 -3 6 -8 10 -11 10 -2 0
-4 -4 -4 -10z"/>
<path d="M5122 2687 c-5 -6 -12 -22 -16 -33 -6 -19 -2 -22 29 -26 19 -2 35 -4
35 -3 0 0 -8 17 -19 38 -14 27 -21 34 -29 24z"/>
<path d="M6948 2694 c-4 -3 -1 -13 7 -21 11 -10 19 -11 32 -4 16 9 16 10 -4
11 -12 0 -23 5 -25 11 -2 5 -6 7 -10 3z"/>
<path d="M2630 2678 c0 -5 -16 -8 -35 -8 -24 0 -35 -5 -35 -15 0 -11 11 -15
40 -15 30 0 40 -4 40 -16 0 -12 6 -15 23 -10 12 3 30 6 40 6 9 0 17 6 17 14 0
8 -8 17 -17 19 -17 4 -17 5 0 6 9 0 17 8 17 16 0 10 -11 14 -45 12 -25 -1 -45
-5 -45 -9z"/>
<path d="M2133 2666 c5 -12 -4 -14 -46 -11 -74 4 -127 -4 -121 -20 8 -20 47
-27 57 -10 10 19 24 19 43 0 23 -23 48 -18 72 15 26 35 27 40 6 40 -10 0 -14
-6 -11 -14z"/>
<path d="M2466 2665 c-3 -8 -1 -15 4 -15 13 0 22 18 11 24 -5 3 -11 -1 -15 -9z"/>
<path d="M2890 2640 c0 -36 3 -40 25 -40 23 0 25 4 25 40 0 36 -2 40 -25 40
-22 0 -25 -4 -25 -40z"/>
<path d="M3200 2665 c0 -11 11 -15 40 -15 29 0 40 4 40 15 0 11 -11 15 -40 15
-29 0 -40 -4 -40 -15z"/>
<path d="M3536 2655 c-23 -36 -20 -55 9 -55 18 0 25 -5 25 -20 0 -26 21 -26
43 1 12 13 13 19 5 18 -45 -6 -51 0 -44 41 7 47 -12 55 -38 15z"/>
<path d="M3600 2655 c0 -15 6 -25 14 -25 22 0 30 19 16 35 -18 22 -30 18 -30
-10z"/>
<path d="M6161 2643 l-1 -43 40 0 c23 0 40 5 40 11 0 6 -6 9 -14 6 -18 -7 -52
21 -59 48 -2 11 -5 1 -6 -22z"/>
<path d="M3680 2654 c0 -14 3 -14 15 -4 8 7 15 14 15 16 0 2 -7 4 -15 4 -8 0
-15 -7 -15 -16z"/>
<path d="M5256 2654 c-10 -27 -7 -44 9 -44 10 0 15 10 15 30 0 32 -14 40 -24
14z"/>
<path d="M2427 2643 c3 -7 9 -13 14 -13 5 0 9 6 9 13 0 8 -6 14 -14 14 -8 0
-12 -6 -9 -14z"/>
<path d="M1680 2640 c0 -5 9 -10 20 -10 11 0 20 5 20 10 0 6 -9 10 -20 10 -11
0 -20 -4 -20 -10z"/>
<path d="M1780 2636 c0 -17 -31 -29 -53 -21 -8 4 -18 2 -22 -4 -6 -11 5 -15
40 -12 77 5 87 4 96 -9 7 -12 9 -10 9 8 0 12 -6 22 -14 22 -8 0 -16 7 -20 15
-7 19 -36 20 -36 1z"/>
<path d="M7024 2643 c7 -7 87 -5 95 3 2 2 -20 4 -49 4 -29 0 -50 -3 -46 -7z"/>
<path d="M7840 2640 c0 -5 18 -10 40 -10 22 0 40 5 40 10 0 6 -18 10 -40 10
-22 0 -40 -4 -40 -10z"/>
<path d="M6313 2633 c-7 -2 -13 -11 -13 -20 0 -20 34 -12 38 10 3 17 -3 20
-25 10z"/>
<path d="M6504 2626 c-3 -7 -4 -17 -3 -22 7 -37 -25 -52 -54 -27 -15 13 -21
15 -24 5 -3 -6 -9 -10 -14 -6 -5 3 -9 1 -9 -5 0 -15 47 -44 60 -36 6 4 90 9
188 11 134 4 181 9 193 20 8 8 21 14 27 14 7 0 12 5 12 10 0 6 -14 10 -31 10
-17 0 -28 4 -24 10 3 6 -3 10 -14 10 -12 0 -21 5 -21 10 0 17 -35 11 -52 -9
-15 -18 -15 -19 19 -19 19 0 36 -2 39 -4 2 -3 -47 -8 -109 -11 -62 -3 -121 -9
-130 -13 -13 -4 -17 -1 -17 14 0 12 5 24 10 27 19 11 10 25 -15 25 -14 0 -28
-6 -31 -14z"/>
<path d="M2515 2620 c-3 -5 -1 -10 4 -10 6 0 11 5 11 10 0 6 -2 10 -4 10 -3 0
-8 -4 -11 -10z"/>
<path d="M5072 2590 c-1 -32 6 -39 43 -46 33 -6 39 10 10 26 -14 7 -25 22 -25
32 0 31 -27 20 -28 -12z"/>
<path d="M3058 2603 c6 -2 18 -2 25 0 6 3 1 5 -13 5 -14 0 -19 -2 -12 -5z"/>
<path d="M3320 2581 c0 -26 29 -35 50 -16 9 8 22 15 28 15 6 0 14 5 17 10 4 6
-13 10 -44 10 -43 0 -51 -3 -51 -19z"/>
<path d="M3452 2580 c-16 -26 -17 -25 20 -24 39 1 41 3 33 27 -9 23 -37 22
-53 -3z"/>
<path d="M6960 2560 c0 -29 4 -40 15 -40 11 0 15 11 15 40 0 29 -4 40 -15 40
-11 0 -15 -11 -15 -40z"/>
<path d="M3045 2570 c-3 -6 5 -10 19 -10 14 0 28 5 31 10 3 6 -5 10 -19 10
-14 0 -28 -4 -31 -10z"/>
<path d="M7440 2570 c0 -6 33 -10 80 -10 47 0 80 4 80 10 0 6 -33 10 -80 10
-47 0 -80 -4 -80 -10z"/>
<path d="M1857 2553 c-3 -5 -2 -32 0 -60 5 -43 9 -53 24 -53 21 0 25 29 13 89
-6 28 -27 42 -37 24z"/>
<path d="M3040 2535 c0 -11 11 -15 40 -15 29 0 40 4 40 15 0 11 -11 15 -40 15
-29 0 -40 -4 -40 -15z"/>
<path d="M6855 2530 c-3 -5 1 -10 9 -10 9 0 16 5 16 10 0 6 -4 10 -9 10 -6 0
-13 -4 -16 -10z"/>
<path d="M5033 2498 c-27 -57 -27 -58 35 -57 51 1 54 2 30 12 -15 6 -33 23
-41 39 l-14 28 -10 -22z"/>
<path d="M6418 2484 c-4 -37 8 -51 35 -41 21 8 9 77 -13 77 -13 0 -19 -10 -22
-36z"/>
<path d="M3510 2495 c0 -9 5 -15 11 -13 6 2 11 8 11 13 0 5 -5 11 -11 13 -6 2
-11 -4 -11 -13z"/>
<path d="M2083 2493 c-46 -2 -83 -8 -83 -13 0 -6 -18 -10 -40 -10 -26 0 -40
-5 -40 -13 0 -10 34 -13 150 -12 82 0 150 3 150 6 0 7 -45 50 -51 47 -2 -1
-41 -4 -86 -5z"/>
<path d="M6480 2470 c0 -18 7 -20 59 -20 32 0 86 -3 120 -6 52 -6 61 -5 61 10
0 12 -10 16 -40 16 -22 0 -40 5 -40 10 0 6 -33 10 -80 10 -73 0 -80 -2 -80
-20z"/>
<path d="M7680 2470 c0 -5 18 -10 40 -10 22 0 40 5 40 10 0 6 -18 10 -40 10
-22 0 -40 -4 -40 -10z"/>
<path d="M6560 2425 c0 -11 11 -15 40 -15 29 0 40 4 40 15 0 11 -11 15 -40 15
-29 0 -40 -4 -40 -15z"/>
<path d="M5026 2375 c-3 -8 -1 -15 4 -15 6 0 10 7 10 15 0 8 -2 15 -4 15 -2 0
-6 -7 -10 -15z"/>
<path d="M2880 2366 c0 -10 9 -16 21 -16 24 0 21 23 -4 28 -10 2 -17 -3 -17
-12z"/>
<path d="M5103 2315 c0 -22 2 -30 4 -17 2 12 2 30 0 40 -3 9 -5 -1 -4 -23z"/>
<path d="M818 2273 c12 -2 32 -2 45 0 12 2 2 4 -23 4 -25 0 -35 -2 -22 -4z"/>
<path d="M5120 2258 c0 -13 3 -47 6 -75 6 -47 9 -53 30 -53 23 0 24 3 24 69 0
63 -2 69 -22 75 -35 9 -38 8 -38 -16z"/>
<path d="M7298 2273 c12 -2 32 -2 45 0 12 2 2 4 -23 4 -25 0 -35 -2 -22 -4z"/>
<path d="M7458 2273 c12 -2 32 -2 45 0 12 2 2 4 -23 4 -25 0 -35 -2 -22 -4z"/>
<path d="M2884 2249 c-3 -6 -1 -16 5 -22 8 -8 11 -5 11 11 0 24 -5 28 -16 11z"/>
<path d="M818 2203 c12 -2 32 -2 45 0 12 2 2 4 -23 4 -25 0 -35 -2 -22 -4z"/>
<path d="M7298 2203 c12 -2 32 -2 45 0 12 2 2 4 -23 4 -25 0 -35 -2 -22 -4z"/>
<path d="M7458 2203 c12 -2 32 -2 45 0 12 2 2 4 -23 4 -25 0 -35 -2 -22 -4z"/>
<path d="M4987 2180 c3 -11 9 -20 13 -20 4 0 10 9 13 20 4 15 0 20 -13 20 -13
0 -17 -5 -13 -20z"/>
<path d="M7698 2193 c12 -2 32 -2 45 0 12 2 2 4 -23 4 -25 0 -35 -2 -22 -4z"/>
<path d="M8178 2193 c12 -2 32 -2 45 0 12 2 2 4 -23 4 -25 0 -35 -2 -22 -4z"/>
<path d="M4957 2135 c3 -8 9 -12 14 -9 12 7 11 11 -5 17 -10 4 -13 1 -9 -8z"/>
<path d="M2912 2123 c3 -17 48 -30 48 -13 0 6 -7 10 -15 10 -8 0 -15 5 -15 10
0 6 -5 10 -11 10 -6 0 -9 -7 -7 -17z"/>
<path d="M7698 2123 c12 -2 32 -2 45 0 12 2 2 4 -23 4 -25 0 -35 -2 -22 -4z"/>
<path d="M8198 2123 c23 -2 61 -2 85 0 23 2 4 4 -43 4 -47 0 -66 -2 -42 -4z"/>
<path d="M785 2110 c3 -5 8 -10 11 -10 2 0 4 5 4 10 0 6 -5 10 -11 10 -5 0 -7
-4 -4 -10z"/>
<path d="M2400 2109 c0 -5 5 -7 10 -4 6 3 10 8 10 11 0 2 -4 4 -10 4 -5 0 -10
-5 -10 -11z"/>
<path d="M720 2050 c0 -5 5 -10 11 -10 5 0 7 5 4 10 -3 6 -8 10 -11 10 -2 0
-4 -4 -4 -10z"/>
<path d="M2465 2050 c-3 -5 -1 -10 4 -10 6 0 11 5 11 10 0 6 -2 10 -4 10 -3 0
-8 -4 -11 -10z"/>
<path d="M4872 1945 c0 -16 2 -22 5 -12 2 9 2 23 0 30 -3 6 -5 -1 -5 -18z"/>
<path d="M4836 1895 c-4 -10 1 -15 14 -15 11 0 20 7 20 15 0 8 -6 15 -14 15
-8 0 -16 -7 -20 -15z"/>
<path d="M60 1780 c6 -11 13 -20 15 -20 3 0 5 9 5 20 0 11 -7 20 -15 20 -13 0
-14 -4 -5 -20z"/>
<path d="M4535 1570 c-3 -5 1 -10 9 -10 9 0 16 5 16 10 0 6 -4 10 -9 10 -6 0
-13 -4 -16 -10z"/>
<path d="M3040 1543 c0 -10 4 -14 8 -8 4 6 11 13 16 18 5 4 2 7 -7 7 -10 0
-17 -8 -17 -17z"/>
<path d="M785 1390 c3 -5 8 -10 11 -10 2 0 4 5 4 10 0 6 -5 10 -11 10 -5 0 -7
-4 -4 -10z"/>
<path d="M2960 1337 c0 -17 72 -16 78 1 2 8 -10 12 -37 12 -27 0 -41 -4 -41
-13z"/>
<path d="M8160 1335 c0 -8 9 -15 20 -15 24 0 27 15 4 24 -22 9 -24 8 -24 -9z"/>
<path d="M720 1330 c0 -5 5 -10 11 -10 5 0 7 5 4 10 -3 6 -8 10 -11 10 -2 0
-4 -4 -4 -10z"/>
<path d="M4315 1330 c3 -5 11 -10 16 -10 6 0 7 5 4 10 -3 6 -11 10 -16 10 -6
0 -7 -4 -4 -10z"/>
<path d="M3085 1311 c-6 -11 9 -23 19 -14 9 9 7 23 -3 23 -6 0 -12 -4 -16 -9z"/>
<path d="M8658 1313 c12 -2 32 -2 45 0 12 2 2 4 -23 4 -25 0 -35 -2 -22 -4z"/>
<path d="M4376 1264 c-9 -22 -8 -24 9 -24 8 0 15 9 15 20 0 24 -15 27 -24 4z"/>
<path d="M3060 1224 c0 -8 5 -12 10 -9 6 3 10 10 10 16 0 5 -4 9 -10 9 -5 0
-10 -7 -10 -16z"/>
<path d="M4172 1213 c2 -9 8 -18 15 -20 7 -3 9 3 6 16 -6 25 -26 28 -21 4z"/>
<path d="M4226 1168 c-3 -13 -1 -27 4 -32 7 -7 10 1 10 22 0 37 -5 41 -14 10z"/>
<path d="M4097 1148 c-8 -28 -1 -35 21 -22 22 14 22 38 1 42 -10 2 -19 -6 -22
-20z"/>
<path d="M1280 1130 c0 -5 18 -10 40 -10 22 0 40 5 40 10 0 6 -18 10 -40 10
-22 0 -40 -4 -40 -10z"/>
<path d="M3040 1095 c0 -11 41 -45 54 -45 8 0 19 -12 24 -27 10 -28 10 -27 11
10 1 20 2 40 4 44 1 3 -7 7 -18 9 -11 1 -32 5 -47 8 -16 3 -28 3 -28 1z"/>
<path d="M4220 1090 c0 -5 5 -10 10 -10 6 0 10 5 10 10 0 6 -4 10 -10 10 -5 0
-10 -4 -10 -10z"/>
<path d="M4240 920 c0 -40 4 -70 10 -70 6 0 10 30 10 70 0 40 -4 70 -10 70 -6
0 -10 -30 -10 -70z"/>
<path d="M5378 923 c12 -2 32 -2 45 0 12 2 2 4 -23 4 -25 0 -35 -2 -22 -4z"/>
<path d="M4120 912 c0 -10 22 -32 32 -32 4 0 8 9 8 20 0 13 -7 20 -20 20 -11
0 -20 -4 -20 -8z"/>
<path d="M2720 775 c0 -11 11 -15 40 -15 29 0 40 4 40 15 0 11 -11 15 -40 15
-29 0 -40 -4 -40 -15z"/>
<path d="M2923 663 c20 -2 54 -2 75 0 20 2 3 4 -38 4 -41 0 -58 -2 -37 -4z"/>
<path d="M3375 550 c-8 -13 4 -32 16 -25 12 8 12 35 0 35 -6 0 -13 -4 -16 -10z"/>
<path d="M3816 491 c-3 -5 1 -14 9 -21 12 -10 15 -10 15 3 0 19 -16 31 -24 18z"/>
<path d="M3680 449 c0 -8 -17 -10 -51 -7 -29 3 -45 2 -37 -3 7 -5 30 -9 51 -9
20 0 37 -5 37 -11 0 -5 4 -7 10 -4 5 3 27 1 47 -4 42 -12 71 4 60 33 -8 19
-117 24 -117 5z"/>
<path d="M60 420 c6 -11 13 -20 15 -20 3 0 5 9 5 20 0 11 -7 20 -15 20 -13 0
-14 -4 -5 -20z"/>
<path d="M3361 424 c0 -11 3 -14 6 -6 3 7 2 16 -1 19 -3 4 -6 -2 -5 -13z"/>
<path d="M3440 411 c0 -5 9 -12 20 -15 11 -3 29 -9 40 -12 11 -3 20 -1 20 5 0
5 -10 13 -22 16 -13 4 -31 9 -40 11 -10 3 -18 1 -18 -5z"/>
<path d="M3812 388 c-18 -18 -15 -28 8 -28 13 0 20 7 20 20 0 23 -10 26 -28 8z"/>
<path d="M3825 270 c3 -5 8 -10 11 -10 2 0 4 5 4 10 0 6 -5 10 -11 10 -5 0 -7
-4 -4 -10z"/>
<path d="M3760 210 c0 -5 5 -10 11 -10 5 0 7 5 4 10 -3 6 -8 10 -11 10 -2 0
-4 -4 -4 -10z"/>
</g>
</svg>
